<?xml version="1.0" encoding="utf-8"?>
<!-- Generator: Adobe Illustrator 21.0.0, SVG Export Plug-In . SVG Version: 6.00 Build 0)  -->
<svg version="1.0" id="Layer_1" xmlns="http://www.w3.org/2000/svg" xmlns:xlink="http://www.w3.org/1999/xlink" x="0px" y="0px"
	 viewBox="0 0 920 610" style="enable-background:new 0 0 920 610;" xml:space="preserve">
<g>
	<path d="M240.8,252c0.9-1,1.6-2.1,2.2-3.2c0.7-1.4,1.3-2.9,1.7-4.5c0.5-2.1,1.1-4.3,2.1-6.3c0.1-0.2,0.2-0.4,0.2-0.7
		c0.1-0.4-0.2-0.7-0.6-0.7c-0.4,0-0.7,0.2-1.1,0.2c-0.7,0.1-1.4,0.2-2.1,0.1c-0.8,0-1.1-0.5-0.7-1.2c0.7-1.1,1.4-2.2,2.1-3.4
		c2.3-3.7,4.3-7.6,5.8-11.7c1.5-3.9,2.3-8,2.6-12.2c0.2-3.7,0.7-7.4,1.1-11c0.3-2.7,0.7-5.4,1-8.2c0.3-2,0.5-4,0.8-6
		c0.1-0.4,0.1-0.8,0.1-1.2c0-0.2-0.1-0.4-0.3-0.4c-0.1,0-0.2,0-0.3,0.1c-0.1,0.1-0.3,0.3-0.3,0.4c-0.4,0.7-0.7,1.4-0.8,2.2
		c-0.1,0.8-0.2,1.5-0.4,2.3c0,0.2-0.2,0.5-0.5,0.5c-0.2,0-0.4-0.2-0.6-0.4c-0.5-0.7-0.6-1.5-0.7-2.4c-0.2-4.4,0.5-8.6,1.9-12.6
		c1.1-3.1,2.6-6,4.4-8.7c3-4.4,6.3-8.5,10-12.4c4-4.2,7.1-9,9.9-14c0.4-0.7,0.4-1.2,0.1-1.3c-0.5-0.2-0.8,0.1-1.1,0.4
		c-1.8,1.3-3.3,2.9-4.7,4.6c-1.6,2-3.2,4-4.4,6.3c-0.1,0.3-0.3,0.5-0.5,0.7c-0.1,0.1-0.4,0-0.5-0.1c-0.1-0.3-0.3-0.6-0.3-0.8
		c0-1,0-1.9,0.1-2.9c0.6-5.8,3.1-10.8,6.9-15.3c2.9-3.4,6.2-6.4,9.6-9.3c3.2-2.7,6.5-5.4,9.8-8.1c0.9-0.7,1.7-1.5,2.5-2.3
		c0.8-0.7,1.5-1.4,2.2-2.1c0.4-0.3,0.8-1,1.3-0.8c0.7,0.4,0.1,1.1-0.1,1.6c-0.6,1.8-0.5,3.5,0.1,5.3c0.2,0.6,0.5,1.2,0.7,1.8
		c0.4,1.3,1.4,2,2.4,2.8c0.1,0.1,0.3,0.1,0.5,0.1c0.2,0,0.4-0.4,0.3-0.6c-0.1-0.1-0.1-0.3-0.2-0.3c-1.3-0.3-1.2-1.2-1.2-2.2
		c0-2.2-0.1-4.4-0.1-6.6c0-1-0.3-1.9-0.9-2.6c-0.6-0.7-0.6-1.1-0.1-1.9c0.4-0.6,0.9-1.1,1.4-1.7c1.9-2,3.9-3.8,6.1-5.5
		c0.3-0.2,0.6-0.4,0.9-0.6c0.5-0.3,1-0.1,1,0.5c0.3,2.3,0.3,4.5-0.9,6.6c-1.7,2.8-2.8,5.9-3.8,9.1c-0.1,0.2-0.1,0.3-0.1,0.5
		c0,0.1,0,0.3,0.1,0.3c0.1,0.1,0.4,0.1,0.5,0.1c0.3-0.2,0.6-0.4,0.8-0.7c0.6-0.6,1.2-1.2,1.8-1.7c0.5-0.4,1-0.8,1.6-1.1
		c0.5-0.3,0.9-0.1,1,0.5c0,0.1,0,0.1,0,0.2c0,0.3-0.1,0.8,0.2,1c0.5,0.3,0.8-0.1,1.1-0.4c0.8-0.7,1.5-1.5,2.3-2.3
		c2.6-2.6,5.1-5.1,7.7-7.7c1.2-1.2,2.4-2.5,3.5-3.9c0.3-0.4,0.7-1,1.3-0.7c0.5,0.2,0.4,0.8,0.4,1.3c-0.1,1.4-0.3,2.8-0.8,4.2
		c-1.4,3.7-3.6,6.9-6.2,9.7c-3.2,3.5-6.1,7.3-8.9,11.2c-1.2,1.6-2.3,3.2-3.5,4.7c-0.2,0.3-0.5,0.6-0.8,0.9c-0.2,0.2-0.6,0.1-0.8-0.2
		c-0.3-0.6-0.5-1.2-0.8-1.8c-0.1-0.2-0.2-0.3-0.4-0.2c-0.1,0-0.2,0.2-0.2,0.3c-0.2,1.3-0.4,2.6-0.6,3.9c-0.1,0.5,0,1-0.6,1.2
		c-0.5,0.1-0.8-0.2-1.1-0.5c-0.6-0.6-1.1-1.2-1.6-1.9c-0.3-0.3-0.5-0.7-0.8-1c-0.3-0.3-0.7-0.2-0.9,0.1c-0.2,0.4-0.4,0.9-0.5,1.3
		c-0.5,2.4-1.7,4.4-3,6.5c-1.3,2.1-2.6,4.1-3.7,6.4c-1.5,3.2-2.7,6.5-3.4,9.9c-1.5,6.7-4,13.1-7.6,19c-1,1.6-2.1,3.1-3.2,4.5
		c-0.3,0.4-0.6,0.7-0.9,1.1c-0.1,0.2-0.5,0.5-0.1,0.8c0.3,0.2,0.5-0.1,0.8-0.3c0.9-0.7,1.5-1.6,2-2.5c0.3-0.5,0.5-0.9,0.8-1.4
		c0.3-0.4,0.8-0.2,1,0.2c0.2,0.4,0.2,0.8,0.1,1.2c-0.3,1-0.6,2-1.2,3c-1.4,2.2-2.8,4.5-4.1,6.7c-1.2,2-2.3,4.1-3,6.3
		c-0.3,1-0.5,2.1-0.6,3.2c0,0.2,0.1,0.4,0.3,0.4c0.2,0,0.4,0,0.5-0.2c0.3-0.4,0.5-0.8,0.8-1.2c1.7-2.7,3.3-5.4,5.1-8
		c2-3,4.7-5.2,7.5-7.4c0.1-0.1,0.3-0.2,0.5-0.3c0.3-0.2,0.8,0,0.9,0.4c0.2,0.5,0.2,0.9,0,1.4c-0.1,0.4-0.3,0.8-0.5,1.2
		c-1.1,2-2,4.1-2.7,6.2c-0.7,2.3-1.7,4.4-2.7,6.6c-0.2,0.4-0.3,0.8-0.5,1.2c-0.2,0.5,0.2,1,0.7,1c0.6,0,1.2-0.2,1.7-0.5
		c1.1-0.7,2.1-1.5,3-2.5c0.5-0.5,1-1.1,1.5-1.5c0.5-0.5,1.1-0.3,1.2,0.4c0.4,2,0.4,4-0.8,5.9c-1.8,2.8-3.5,5.7-5.2,8.6
		c-1.5,2.5-2.9,4.9-4.3,7.5c-0.5,0.9-0.9,1.8-1.3,2.8c-0.5,1.3-0.8,2.6-0.7,4c0.1,1-0.2,1.8-0.8,2.7c-2.5,4-5.1,8.1-7.3,12.3
		c-1.1,2.1-2,4.3-2.6,6.6c-0.6,2.4-0.4,4.8,0.5,7c0.6,1.6,0.9,3.2,0.9,4.9c0.1,5.1,0.1,10.1-0.3,15.2c-0.4,4.4,0.1,8.8,1.1,13.1
		c0.2,0.9,0.5,1.7,0.8,2.6c0.1,0.3,0.2,0.7,0.3,1c0.1,0.4-0.3,0.7-0.7,0.6c-0.7-0.1-1.4-0.4-2-0.8c-0.9-0.5-1.7-1.1-2.6-1.6
		c-0.3-0.2-0.6-0.4-1-0.1c-0.2,0.2-0.2,0.5-0.2,0.8c0.2,0.8,0.3,1.6,0.5,2.4c0.3,1,0.3,2,0.1,3c-0.2,1.4-0.5,2.8-0.7,4.2
		c-0.4,2.5-1,5-1.5,7.5c-0.5,2.6-1.1,5.1-1.7,7.7c-1,3.8-1.1,7.5-0.3,11.3c0.5,2.3,0.6,4.6,0.9,6.9c0,0.2,0,0.4,0,0.5
		c-0.1,0.6-0.6,0.9-1.2,0.7c-0.6-0.2-1.1-0.5-1.5-0.9c-0.7-0.6-1.3-1.4-1.9-2.2c-1.3-1.9-2.1-4-2.6-6.2c-1.2-4.9-1.4-9.9-1-14.9
		c0.4-5.6,1.6-11.1,2.8-16.6c0.1-0.6,0.5-1.2,0-1.7c-0.7-0.6-1.2,0.1-1.7,0.4c-3.3,2-5.8,4.8-7.5,8.2c-0.3,0.6-0.6,1.2-0.7,1.8
		c-0.7,2.8-0.2,5.1,2.2,6.8c0.5,0.4,1,0.7,1.4,1.1c0.4,0.3,0.3,0.9-0.2,1.2c-1.4,0.9-3.3,0.9-4.7-0.1c-1.5-1.1-2.3-2.6-2.4-4.4
		c-0.2-1.9,0.3-3.7,1-5.4c1.2-2.7,2-5.5,2.8-8.3c0.5-1.9,0.6-3.8,0-5.6c-0.6-1.8-1.2-3.5-1.8-5.2c-1.2-3.6-2.2-7.2-3.2-10.8
		c-0.5-1.9-0.4-3.8,0.2-5.6c0.2-0.7,0.4-1.4,0.6-2.1c0.1-0.5-0.2-0.9-0.6-0.9"/>
	<path d="M545.1,469.9c0-3.1,0-6-0.5-8.8c-0.3-1.5-0.2-3.1,0-4.6c0.5-2.8,0.8-5.7,0.8-8.5c0-2.3,0.5-4.6,0.8-6.9
		c0.6-3.5,1.2-7,1.8-10.6c0.6-3.6,1.2-7.2,1.7-10.8c0.2-1.1,0.2-2.1,0.3-3.2c0.3-3.4-0.7-6.4-2.6-9.1c-1.1-1.6-2.4-3.1-3.9-4.4
		c-0.4-0.3-0.7-0.6-1.1-0.9c-0.5-0.5-0.8-1-0.8-1.7c0-0.8,0.1-1.5,0.1-2.3c0-0.8,0.5-1.3,1.2-1.7c0.3-0.1,0.6-0.2,0.8-0.3
		c0.5-0.1,0.9-0.2,1.4-0.3c4.7-0.9,8.9-2.9,13.2-5c5.9-2.9,11-7,15.5-11.7c2.5-2.6,4.3-5.5,5.6-8.9c1.2-3.1,2.2-6.2,2.8-9.4
		c0.2-0.9,0.3-1.9,0.3-2.8c0-1.4,0-2.9,0.1-4.3c0.3-4.7-0.5-9.4-1.2-14c-0.2-1.2-0.4-1.4-1.6-1.5c-2.7-0.2-4.9,0.6-6.7,2.7
		c-1.3,1.6-2.5,3.2-3.6,4.9c-1.1,1.7-2.7,2.8-4.6,3.6c-0.1,0-0.2,0.1-0.3,0.1c-1.3,0.5-1.7,0.2-1.8-1.2c0-0.8,0-1.6,0-2.3
		c-0.1-4.2-0.5-8.4-1.2-12.6c-0.5-2.9-1.2-5.7-2.1-8.5c-1.2-3.5-2.9-6.7-5.5-9.5c-3.8-4-8-7.5-13-9.9c-3.1-1.5-6.4-2.5-9.9-3.1
		c-4.3-0.8-8.7-0.9-13-0.6c-7.3,0.4-14.3,2-20.7,5.6c-8.7,4.8-14.4,11.9-17.3,21.4c-1.9,6.3-2.4,12.7-1.6,19.3
		c0.3,2.7,0.7,5.4,1.4,8.1c0.3,0.9,0.1,1.7-0.5,2.5c-2.2,3-3.2,6.5-2.9,10.3c0.2,2.5,0.5,5,0.8,7.5c0.4,2.9,0.9,5.8,1.3,8.7
		c0,0.3,0.1,0.6,0.1,0.9c0.1,1,0.7,1.7,1.7,2.1c1.5,0.6,3.1,1.3,4.6,2c2.9,1.3,5.1,3.3,6.9,5.8c2.3,3.1,3.6,6.6,4.4,10.3
		c0.8,3.6,0.9,7.3,1,11c0.3,6.6-0.2,13.1-0.8,19.6c-0.5,5.8-1,11.6-1.2,17.5c0,0.7,0.1,1.3,0.1,2c0,0.8-0.2,1.2-1,1.5
		c-0.9,0.3-1.8,0.3-2.7,0.1c-1.7-0.4-1.9,0.1-1.9,1.7c0,0.4,0,0.8,0,1.3c0,1.6,0.7,2.9,1.8,4c1.3,1.3,2.8,2.2,4.5,2.9
		c1.2,0.5,2.5,0.8,3.7,1.2c0.6,0.2,1.3,0.4,1.9,0.5c0.8,0.2,1.2,0.6,1.3,1.4c0.1,1.6,0.3,3.2,0.6,4.8c0.2,1.4,0.4,2.8,0.7,4.2
		c0.5,2.3,1.7,4.2,3.7,5.4c0.5,0.3,1.1,0.5,1.6,0.7c0.7,0.2,1,0.6,0.8,1.4c-0.3,1.3-0.8,2.5-2,3.3c-1.6,1-3.3,2-5.2,2.4
		c-4.3,1-8.1,3.1-11.5,5.9c-2.7,2.2-5.3,4.7-7.8,7.2c-1.3,1.3-2.6,2.6-3.9,4c-2.6,2.7-5.9,4.4-9.6,5.3c-2.5,0.6-5.1,0.8-7.6,1
		c-2.4,0.2-4.8-0.3-7.1-0.7c-2.1-0.4-4.2-1-6.1-2c-3.2-1.6-6-3.8-8.2-6.7c-0.3-0.4-0.6-0.9-0.9-1.4c-0.2-0.3,0.1-0.7,0.5-0.8
		c0.3,0,0.6,0,0.9,0c1.4,0.2,2.7,0.3,4.1,0.5c0.8,0.1,1.5,0.2,2.3,0.1c2.3-0.1,4.5,0.1,6.8,0.4c1.2,0.2,2.4,0.2,3.6,0
		c1.5-0.2,3-0.3,4.5-0.3c3.2,0,6.4-0.5,9.6-1.2c1.3-0.3,2.5-0.6,3.8-1c4.2-1.2,7.6-3.6,10.6-6.7c0.2-0.2,0.3-0.4,0.4-0.6
		c0.2-0.3,0.1-0.8-0.3-0.9c-0.3-0.1-0.7-0.2-1-0.3c-2.4-0.4-4.7-0.7-7.1-1.1c-1.9-0.3-3.8-0.5-5.7-0.7c-1.7-0.2-3.4-0.3-5.2-0.4
		c-0.8,0-1.7,0-2.5-0.2c-1.4-0.4-2.8-0.5-4.3-0.4c-2.3,0.1-4.5,0-6.8-0.5c-1.9-0.3-3.8-0.4-5.7-0.3c-1.4,0-2.9,0.1-4.3,0.1
		c-1.3,0-2.5-0.1-3.7-0.4c-0.9-0.2-1.8-0.3-2.7-0.3c-2.9,0-5.8,0-8.8,0c-2.4,0-4.8-0.1-7.1-0.6c-2-0.4-4-0.4-6.1-0.3
		c-2.3,0.2-4.6,0.1-6.9-0.4c-1.5-0.3-3.1-0.4-4.6-0.3c-1.3,0.1-2.5,0-3.7-0.2c-1.5-0.3-2.9-0.4-4.4-0.5c-0.4,0-0.8,0-1.2-0.1
		c-0.3-0.1-0.5-0.3-0.6-0.6c-0.1-1.6,0-3.3,1.3-4.5c1-1,2.1-1.8,3.1-2.7c0.6-0.5,1.2-0.6,1.8-0.2c0.2,0.1,0.4,0.2,0.6,0.3
		c0.4,0.2,0.9,0.4,1.3,0.6c4.1,2,8.4,2.9,13,2.6c4.8-0.4,9.6-0.8,14.4-1.5c2.8-0.4,5.5-0.8,8.3-1.1c3-0.3,5.9,0.1,8.6,1.8
		c0.6,0.4,1.4,0.7,2.1,1.1c1.7,0.8,3.5,0.8,5.2,0.5c1.7-0.4,3.3-1,4.8-1.8c2.9-1.6,5.9-3.2,8.8-4.8c1.8-1,3.6-1.4,5.7-1.3
		c0.6,0,1.2,0.1,1.8,0c0.8,0,1.1-0.5,0.9-1.3c-0.1-0.2-0.2-0.4-0.3-0.7c-1.2-3.3-3.4-5.7-6-7.9c-2.1-1.6-4.3-3-6.7-4.1
		c-3.1-1.5-6.1-3.1-8.9-4.9c-2.6-1.7-5.1-3.6-7.1-5.9c-1.9-2.2-3.4-4.6-4.2-7.4c-0.2-0.8-0.3-1.5-0.4-2.3c-0.1-1.4,0.4-2.4,1.8-3
		c1.7-0.7,3.4-1.4,5.2-1.9c3.4-1,6.8-1.6,10.3-2.4c3.1-0.7,5.2-2.6,6.5-5.4c1-2.1,1.5-4.3,1.8-6.5c0.5-3.6,0.7-7.2,0.5-10.9
		c-0.2-5.1-0.1-10.3,0.1-15.4c0.2-4.4,0.5-8.8,1-13.2c0.4-4.3,1-8.7,1.8-12.9c0.5-2.7,0.7-5.3,0.5-8c-0.2-2.6-0.4-5.2-1-7.8
		c-0.3-1.7-0.9-3.3-2-4.7c-1.8-2.3-2.6-5-2.7-8c0-1.5,0-3,0.4-4.4c0.1-0.3,0.1-0.6,0.2-0.9c0.3-1.1-0.2-1.8-1.1-2.4
		c-0.3-0.2-0.6-0.3-1-0.5c-0.8-0.4-1.3-1-1.4-1.9c-0.1-0.9-0.2-1.8-0.3-2.7c-0.1-1.2-0.7-2-1.8-2.4c-0.1,0-0.2-0.1-0.3-0.1
		c-1.5-0.6-1.6-1-0.5-2.1c1.5-1.5,3.3-2.6,5.2-3.4c1.3-0.6,2.7-1.3,4.1-1.7c1.3-0.4,1.5-0.8,1.4-2.1c-0.1-0.7-0.2-1.4-0.3-2.1
		c-0.2-0.9-0.2-1.8,0.1-2.6c0.5-1.3,0.4-2.7-0.1-4c-0.1-0.4-0.3-0.8-0.4-1.2c-0.1-0.2-0.2-0.5,0.1-0.7c0.3-0.2,0.6,0,0.8,0.2
		c0.5,0.4,1,0.8,1.6,1.2c0.5,0.4,1,0.1,1-0.4c0.1-1.4,0.1-2.7-0.7-4c-0.4-0.7-0.8-1.5-1.2-2.2c-0.1-0.2,0-0.4,0.1-0.5
		c0.1,0,0.3-0.1,0.3,0c0.4,0.2,0.7,0.4,1.1,0.6c1,0.7,2.1,1.4,3.1,2.1c0.4,0.3,0.9,0.7,1.5,0.3c0.6-0.4,0.3-1,0.2-1.5
		c-0.2-0.9-0.4-1.8-0.5-2.6c-0.2-1,0.4-1.5,1.4-1.2c0.7,0.2,1.2,0.6,1.7,1c0.4,0.3,0.8,0.7,1.2,1c0.4,0.3,1,0.1,1.2-0.4
		c0.2-0.4,0.3-0.8,0.3-1.2c0.2-1.2,0.2-2.5,0.1-3.7c0-0.5-0.1-0.9-0.1-1.4c0-0.1,0.1-0.3,0.3-0.4c0.2-0.1,0.3,0,0.5,0.1
		c0.5,0.6,0.9,1.2,1.2,2c0.2,0.6,0.4,1.1,0.6,1.7c0.2,0.6,0.7,0.8,1.3,0.4c1.2-0.8,2.3-1.7,3.4-2.6c1.9-1.5,3.8-2.9,5.8-4.1
		c0.8-0.5,1.5-1,2.4-1.2c0.2-0.1,0.4-0.1,0.5,0.1c0.1,0.1,0.1,0.4,0,0.5c-0.4,0.6-0.9,1.1-1.2,1.7c-0.4,0.7-1.4,1-1.1,2
		c0.9,0.1,1.4-0.5,2-0.9c1.5-0.9,2.9-1.9,4.3-2.9c1.1-0.8,2.4-1.1,3.7-0.8c0.1,0,0.2,0.1,0.3,0.2c0.1,0.2,0,0.4-0.1,0.5
		c-0.4,0.3-0.9,0.6-1.3,0.9c-0.2,0.2-0.5,0.3-0.7,0.5c-0.2,0.2-0.1,0.6,0.1,0.8c0.4,0.3,0.9,0.3,1.3,0c0.5-0.4,0.8-0.8,1.2-1.3
		c0.9-1.2,1.7-2.4,2.6-3.6c0.7-0.9,1-1,1.9-0.3c0.9,0.7,1.8,1.3,2.9,1.7c2,0.7,4.1,0.9,6.2,0.8c2.1-0.1,4.2-0.4,6.2-0.6
		c0.5,0,0.9-0.1,1.4-0.1c0.2,0,0.4,0.4,0.3,0.5c-0.2,0.2-0.4,0.5-0.5,0.7c-0.2,0.3-0.7,0.5-0.3,0.8c0.3,0.3,0.7,0.1,1-0.1
		c0.6-0.3,1.3-0.7,1.9-1c0.5-0.2,0.9,0,1.1,0.5c0,0.1,0,0.1,0.1,0.2c0.5,1.8,0.5,1.7,2,0.6c0.6-0.4,1.1-0.9,1.7-1.3
		c0.4-0.3,0.8-0.5,1.2-0.7c0.5-0.3,1.3,0.1,1.5-0.7c0.1-0.5-0.5-0.9-0.7-1.4c-0.1-0.2-0.1-0.5,0.1-0.7c0.1-0.1,0.3-0.2,0.5-0.2
		c0.3,0,0.6,0.1,0.8,0.2c2.2,1.1,4.3,2.4,5.6,4.6c0.1,0.2,0.2,0.2,0.4,0.2c0.2-0.1,0.3-0.2,0.3-0.4c0-0.4-0.1-0.7-0.1-1.1
		c0-0.7,0.2-1,0.9-1.1c0.6-0.1,1.2-0.1,1.8-0.1c2.9,0,5.8,0.5,8.7,1.2c2.1,0.5,4.3,1.1,6.4,1.8c1.8,0.6,3.5,1.4,5.1,2.6
		c0.3,0.2,0.6,0.4,0.9,0.6c0.4,0.2,0.8,0,1-0.4c0.2-0.5,0.2-1.1,0.1-1.6c-0.2-1.8-0.5-3.7-0.7-5.5c-0.1-1-0.4-2-0.9-2.9
		c-0.3-0.5-0.5-0.9-0.7-1.4c-1.9-4.5-5.1-8-8.8-11.1c-1.1-1-2.3-1.9-3.5-2.8c-2.5-2-4.8-4.1-7-6.3c-1.1-1.1-2.2-2.2-3.3-3.3
		c-1.7-1.7-2.9-3.8-3.7-6c-0.5-1.4-1.1-2.8-1.7-4.1c-0.7-1.5-1.8-2.8-3.1-3.9c-0.9-0.7-1.8-1.4-2.7-2.1c-1.3-1-2.6-1.9-3.9-2.8
		c-2.7-1.9-4.9-4.4-6.6-7.2c-1.4-2.2-2.6-4.5-3.9-6.8c-0.2-0.3-0.4-0.6-0.4-1c-0.2-1.3-0.9-2.4-1.5-3.6c-1.3-2.6-2.7-5.2-4-7.8
		c-0.6-1.3-1.3-2.5-2.3-3.6c-1.1-1.3-2-2.6-3-4c-0.4-0.5-0.6-1-0.9-1.5c-0.1-0.1,0-0.4,0.1-0.5c0.1-0.1,0.3-0.2,0.5-0.2
		c1,0.2,1.8,0.7,2.5,1.3c1.2,1.1,2.2,2.4,3,3.8c1.5,2.5,3.1,5,4.6,7.5c0.1,0.2,0.2,0.3,0.3,0.5c0.2,0.3,0.4,0.8,0.9,0.7
		c0.5-0.1,0.5-0.6,0.7-1c0.5-1.4,0-2.7-0.7-3.9c-0.3-0.6-0.8-1.2-1.3-1.7c-1-1.2-2-2.3-3.1-3.5c-0.5-0.6-1-1.2-1.2-1.9
		c0-0.1,0-0.4,0.1-0.5c0.1-0.1,0.3-0.2,0.5-0.1c0.7,0.3,1.4,0.6,2.1,0.9c0.4,0.2,0.8,0.4,1.3,0.7c0.7,0.4,1.3,0.5,1.8-0.3
		c0.3-0.5,1-0.3,1.5-0.5c0.5-0.2,0.6-0.6,0.3-1c-0.4-0.4-0.8-0.7-1.2-1c-0.9-0.6-1.8-1.1-2.7-1.7c-0.8-0.5-1.5-0.9-2.4-1
		c-0.8-0.1-1.3-0.5-1.7-1.2c-0.3-0.4-0.1-0.9,0.4-0.9c1.4-0.1,2.7-0.1,4.1,0.3c1.8,0.5,3.6,1,5.4,1.2c0.9,0.1,1.8,0.1,2.7,0
		c0.6-0.1,0.8-0.6,0.5-1.1c-0.3-0.4-0.6-0.9-1-1.3c-1.7-2-3.4-4-4.9-6.1c-1-1.4-1.5-3-2-4.6c-0.2-0.8-0.1-1.3,0.3-1.4
		c0.5-0.2,0.9,0.2,1.2,0.5c0.5,0.4,0.9,1,1.2,1.6c0.5,0.8,0.9,1.7,1.5,2.5c0.3,0.4,0.6,0.8,0.9,1.1c0.2,0.2,0.4,0.3,0.7,0.2
		c0.3-0.1,0.3-0.3,0.4-0.6c0.1-0.9,0-1.8-0.7-2.5c-0.8-0.9-1.5-1.8-2.3-2.8c-0.9-1.1-1.7-2.3-2.2-3.7c-0.1-0.3-0.2-0.7-0.3-1
		c-0.1-0.4,0.2-0.9,0.7-0.9c0.4,0,0.8,0,1.2,0c2.5,0.2,4.8,1,7,2c0.7,0.3,1.3,0.6,2,0.9c0.3,0.1,0.6,0.2,0.9,0.2
		c0.4,0,0.8-0.4,0.7-0.8c-0.1-0.5-0.5-0.9-0.9-1.3c-1.1-1.1-2-2.4-2.7-3.8c-0.3-0.5-0.5-1-0.3-1.5c0.5-1.4,1-1.7,2.2-1.7
		c0.8,0,1.5,0.2,2.3,0.3c0.1,0,0.4-0.1,0.4-0.2c0.1-0.1,0.1-0.4,0-0.5c-0.2-0.5-0.5-0.8-0.9-1.1c-0.6-0.4-1.3-0.9-1.9-1.3
		c-0.3-0.2-0.6-0.4-0.9-0.6c-0.2-0.1-0.3-0.4-0.3-0.6c0-0.3,0.3-0.5,0.6-0.6c0.4-0.1,0.8-0.1,1.2-0.1c1.3,0,2.6,0.4,3.8,1
		c1.5,0.8,3.1,1.2,4.7,1.8c0.1,0,0.2,0,0.4,0.1c0.3,0,0.6-0.2,0.6-0.5c0-0.4-0.1-0.7-0.2-1.1c-0.9-3.4-2.4-6.5-4.8-9.1
		c-0.6-0.7-1.2-1.3-1.8-2c-0.3-0.4-0.6-0.8-0.8-1.2c-0.1-0.2,0-0.6,0.3-0.7c0.5-0.2,1.1-0.2,1.6,0c0.2,0.1,0.4,0.2,0.7,0.3
		c0.5,0.2,0.9,0.8,1.5,0.4c0.7-0.4,0.2-1.1,0.1-1.6c-0.2-1-0.6-2.1-1-3.1c-0.3-0.9-0.5-1.8-0.4-2.8c0-0.4,0.4-0.6,0.8-0.4
		c0.5,0.2,0.9,0.6,1.2,1c2.5,3,5.4,5.7,8.2,8.5c2.6,2.5,5.8,4.2,9.1,5.5c0.2,0.1,0.5,0.1,0.7,0.1c0.3,0,0.6-0.3,0.5-0.6
		c-0.1-0.9-0.5-1.7-1-2.5c-1.1-1.7-2.4-3.3-3.7-4.8c-1.7-1.9-3.4-3.8-5.1-5.7c-0.8-0.9-1.6-1.9-2.2-3c-0.1-0.2-0.2-0.4,0-0.7
		c0.1-0.2,0.4-0.3,0.6-0.2c0.4,0,0.8,0.1,1.2,0.1c0.3,0,0.7-0.4,0.6-0.8c-0.1-0.3-0.1-0.6-0.3-0.8c-1-1.1-2-2.1-3.6-2.2
		c-0.8,0-1.2-0.5-1.5-1.1c-0.2-0.3-0.5-0.6-0.3-1c0.2-0.4,0.6-0.2,1-0.2c4.5,0.9,8.5,2.9,12.2,5.7c4.5,3.6,8.4,7.7,12.4,11.9
		c0.4,0.4,0.7,0.8,1,1.3c0.2,0.3,0.5,0.6,0.9,0.5c0.3-0.1,0.4-0.5,0.2-1.1c-0.2-0.5-0.4-1-0.6-1.5c-0.8-1.4-1.6-2.8-2.4-4.2
		c-0.7-1.2-1.4-2.3-2.1-3.5c-0.4-0.7-0.7-1.5-0.8-2.3c0-0.4,0.4-0.7,0.7-0.5c0.4,0.2,0.9,0.4,1.3,0.7c2.8,1.9,5.1,4.3,7,7.1
		c0.8,1.1,1.6,2.2,1.9,3.6c0.1,0.4,0.6,0.7,1,0.5c0.9-0.5,1.8-1,2.5-1.7c0.3-0.3,0.3-0.8-0.1-1.1c-0.4-0.3-0.8-0.6-1.2-0.8
		c-0.8-0.6-1.7-1.1-2.6-1.7c-0.5-0.3-0.9-0.6-1.2-1.1c-0.1-0.1-0.1-0.4-0.1-0.5c0.1-0.1,0.3-0.3,0.4-0.3c0.5,0,0.9,0.1,1.4,0.2
		c6.9,1.5,12.8,4.9,17.8,9.7c3.3,3.1,6.1,6.7,8.7,10.4c3.3,4.7,6,9.8,8.6,14.9c0.4,0.8,0.8,1.6,1,2.5c0.1,0.6,0.4,1.2,0.8,1.8
		c0.1,0.2,0.4,0.3,0.6,0.3c0.3,0,0.4-0.2,0.5-0.5c0.5-2,0.9-4,0.7-6c-0.4-3.2-1.1-6.2-2.7-9c-1.7-3.1-3.4-6.1-5.3-9.2
		c-2.7-4.5-4.7-9.3-6.3-14.2c-1.2-3.5-2-7.1-2.7-10.7c-0.4-1.9-1-3.8-1.7-5.6c-0.9-2.3-2-4.5-3.4-6.5c-0.1-0.2-0.3-0.4-0.4-0.6
		c-0.2-0.3-0.5-0.7-1-0.6c-0.4,0.1-0.6,0.5-0.5,1.2c0,0.6,0.1,1.2,0.3,1.8c0.3,1.3,0.7,2.6,1.1,4c0.1,0.5,0.3,1,0.3,1.6
		c0,0.4-0.2,0.8-0.6,1c-0.4,0.2-0.7,0-1-0.2c-0.2-0.2-0.4-0.4-0.6-0.6c-2.4-2.4-4.7-4.7-7.1-7.1c-1.3-1.3-2.7-2.5-4.1-3.7
		c-2.4-2-4.7-4.1-7.1-6c-3-2.4-6.1-4.6-9.2-6.9c-0.2-0.2-0.5-0.3-0.8-0.4c-0.2-0.1-0.5,0.3-0.4,0.5c0.1,0.3,0.2,0.6,0.3,0.8
		c1.1,1.7,2.2,3.4,3.3,5.1c0.8,1.2,1.9,2.1,3.2,2.8c1.2,0.7,2.4,1.2,3.6,2c2.8,1.9,5.1,4.3,7.5,6.7c3,3.1,5.3,6.6,6.8,10.6
		c0.7,2,1.2,4,1.7,6c0.1,0.2,0.1,0.5,0.1,0.7c0,0.4-0.4,0.6-0.8,0.5c-0.2-0.1-0.4-0.2-0.6-0.3c-1.5-1.1-3.1-2.2-4.4-3.6
		c-1.2-1.4-2.6-2.6-4.1-3.7c-2-1.6-3.8-3.3-5.5-5.1c-1.6-1.7-3.4-3.4-5.2-4.9c-2.2-1.9-4.3-3.8-6.5-5.6c-1.7-1.5-3.6-2.8-5.5-4
		c-1-0.7-1.9-1.4-2.9-2.1c-0.2-0.1-0.3-0.4-0.2-0.6c0.1-0.3,0.3-0.4,0.6-0.4c1.1,0,2.3,0,3.4-0.1c0.4,0,1.1,0.1,1.2-0.5
		c0.1-0.5-0.5-0.6-0.8-0.8c-3.2-1.7-6.4-3.4-9.8-4.9c-0.5-0.2-1-0.4-1.5-0.5c-0.4-0.1-0.7,0.3-0.5,0.7c0.1,0.4,0.4,0.7,0.7,1
		c0.7,0.7,1.4,1.5,2.1,2.2c0.4,0.4,0.8,0.9,1.1,1.4c0,0.1,0,0.2,0,0.3c-0.1,0.1-0.2,0.2-0.3,0.1c-0.4-0.2-0.9-0.4-1.3-0.6
		c-2.9-1.9-5.9-3.8-8.8-5.8c-4.4-2.9-8.8-5.8-12.9-9c-1.8-1.4-3.8-2.7-5.3-4.5c-0.4-0.4-0.8-0.8-0.9-1.3c-0.1-0.3,0.1-0.7,0.4-0.7
		c0.5,0,1,0,1.4,0.1c1.8,0.3,3.6,0.6,5.5,0.9c0.2,0,0.5,0.1,0.7,0.1c2,0.2,3.9,0.6,5.8,1.1c2.6,0.7,5.2,0.8,7.8,0.2
		c0.8-0.2,1.5-0.1,2.3-0.1c1.5,0.2,3,0.4,4.4,0.5c2.2,0.2,4.2,0.9,6.2,1.6c2.1,0.7,4.2,1.4,6.2,2.3c0.5,0.2,1,0.4,1.5,0.5
		c0.4,0.1,0.8-0.3,0.8-0.8c0-0.6-0.3-1.2-0.8-1.6c-0.6-0.5-1.3-1-2-1.5c-0.8-0.5-1.6-1-2.4-1.6c-0.6-0.4-1.2-0.9-1.8-1.4
		c-0.2-0.1-0.3-0.4-0.1-0.6c0.1-0.1,0.3-0.2,0.4-0.3c1.2,0,2.4,0,3.5,0.4c2.5,0.8,4.9,2,7.2,3.2c1.5,0.8,2.9,1.6,4.4,2.4
		c0.4,0.2,0.7,0.4,1.2,0.5c0.4,0,0.8-0.3,0.8-0.8c0-0.5-0.1-0.9-0.4-1.3c-0.3-0.4-0.7-0.8-1-1.3c-0.4-0.5-0.1-1,0.6-1.1
		c0.8-0.1,1.5,0.1,2.2,0.6c1.7,1.2,3.2,2.5,4.3,4.2c0.7,0.9,1.4,1.8,2.2,2.5c0.4,0.4,0.9,0.7,1.4,1.1c0.3,0.2,0.6,0.3,0.8,0.1
		c0.3-0.2,0.2-0.5,0.1-0.8c-0.3-1-0.9-1.9-1.5-2.8c-0.4-0.6-0.8-1.2-1.1-1.8c-0.1-0.1-0.1-0.4,0-0.5c0.1-0.2,0.4-0.2,0.6-0.2
		c0.5,0.2,1,0.4,1.5,0.6c0.8,0.5,1.7,1,2.4,1.5c3.9,2.7,7.3,5.9,10.2,9.7c3.4,4.4,6.4,9,8.8,14.1c0.3,0.6,0.6,1.2,0.9,1.7
		c0.2,0.3,0.4,0.6,0.8,0.7c0.3,0.1,0.6-0.1,0.7-0.4c0.1-0.4-0.1-0.8-0.3-1.2c-0.4-0.7-0.8-1.3-1.2-2c-0.2-0.4-0.5-0.8-0.6-1.3
		c-0.1-0.6,0.3-1.1,0.9-1c1,0.2,2.1,0.4,3.1,0.9c1.8,0.8,3.3,1.8,4.6,3.3c1,1.1,1.8,2.3,2.6,3.7c0.4,0.6,0.5,1.3,0.4,2.1
		c-0.1,0.6-0.1,1.2-0.1,1.8c0,9.2-0.1,18.5-0.1,27.7c0,14.8,0,29.7,0,44.5c-0.1,23.8-0.2,47.6-0.3,71.4c0,1.3,0,2.6,0,3.9
		c0,1.2,0.3,1.5,1.5,1.5c1,0,1.9,0,2.9,0c2.7,0,5.5,0,8.2,0.1c0.4,0,0.8,0,1.2,0.1c0.3,0,0.5,0.5,0.3,0.7c-0.3,0.4-0.6,0.7-1,1
		c-2.5,2.2-4.8,4.6-6.9,7.2c-3.7,4.8-6.5,10-8.1,15.8c-0.7,2.8-1.1,5.6-1.2,8.5c-0.1,3.2-0.1,6.4,0.1,9.7c0.5,6.3,2.1,12.3,5,18
		c2.6,4.9,6,9.1,10.5,12.5c0.2,0.2,0.5,0.4,0.7,0.6c0.1,0.1,0.2,0.3,0.1,0.5c0,0.1-0.2,0.3-0.3,0.3c-0.6,0.1-1.3,0.1-2,0.1
		c-3,0-6.1-0.1-9.1-0.1c-2.1,0-2.2,0.1-2.2,2.2c0,9.6-0.1,19.2-0.1,28.8c-0.1,19.9-0.2,39.8-0.3,59.8c0,0.2,0,0.5,0,0.7
		c0,2.1,0.1,2.3,2.2,2.3c0.6,0,1.2,0,1.8,0c3.5,0,7,0,10.6,0.1c2,0,2.1,0.1,2.5,2c0.2,1.1,0.4,2.2,0.5,3.4c0.1,0.6-0.2,1.1-0.7,1.3
		c-0.7,0.4-1.4,0.7-2.1,1c-4.2,2-8.5,4.1-12.8,6.1c-0.3,0.2-0.6,0.3-1,0.5c-0.7,0.3-1.1,0.9-1.1,1.7c0,0.5,0,1.1,0,1.6
		c0,5.3,0,10.6,0,15.9c0,1.2-0.3,2.3-1,3.4c-1.1,1.7-2.2,3.4-3.5,5c-0.7,0.8-1.4,1.6-2.1,2.4c-2.1,2.4-4.8,3.4-7.9,3.4
		c-0.7,0-1.4,0-2.1-0.1c-0.1,0-0.2-0.1-0.2-0.2c0-0.1,0.1-0.2,0.2-0.3c0.4-0.2,0.8-0.3,1.2-0.5c0.4-0.2,0.9-0.3,1.3-0.5
		c1.8-0.7,2.7-2,3.1-3.9c0.2-1,0.5-2.1,0.8-3.1c0.1-0.7-0.2-1.1-0.8-1.1c-1.1,0-2.1,0.2-3.1,0.8c-1.7,1-3.1,2.4-4.4,3.9
		c-1.1,1.2-2.1,2.4-3.2,3.6c-1,1.1-2.1,1.9-3.3,2.7c-1.9,1.2-3.9,1.4-6,1.2c-0.2,0-0.5,0-0.5-0.4c0-0.1,0.1-0.3,0.3-0.4
		c0.5-0.3,0.9-0.6,1.4-0.8c1.5-0.8,2.9-1.7,4.2-2.7c0.6-0.4,1.1-0.9,1.6-1.4c0.5-0.4,0.8-0.9,0.5-1.6c-0.3-0.7-0.7-1.4-1.6-1.5
		c-1.4-0.1-2.7,0.2-4,0.7c-0.5,0.2-0.8,0.6-1,1c-0.5,0.7-1,1.5-1.5,2.2c-1.6,2.5-3.4,4.9-5.5,7c-1.8,1.8-3.9,3.3-6.2,4.5
		c-1,0.5-2,1-3.1,1.5c-1.8,0.8-3.4,2-4.7,3.5c-6.5,6.7-12.9,13.4-19.4,20c-4.9,5-9.8,10.1-14.8,15c-6.7,6.6-13.9,12.5-21.9,17.5
		c-6,3.7-12.3,6.8-19,9c-5.8,1.9-11.7,3.2-17.8,4c-7.5,1-15.1,1.2-22.7,1.1c-2.6-0.1-5.2-0.5-7.8-1c-9.4-1.9-18.2-5.2-26.7-9.5
		c-6-3.1-11.8-6.5-17.3-10.4c-3.5-2.5-6.6-5.3-9.7-8.2c-3.2-3.1-6.3-6.2-9.4-9.3c-2.1-2.1-4.2-4.2-6.3-6.3c-0.7-0.7-1.3-1.4-1.9-2.2
		c-1.4-1.7-2.9-3.3-4.6-4.8c-1-0.9-1.9-1.9-2.8-3c-0.9-1.1-1.7-2.1-2.7-3.1c-0.6-0.6-1.2-1.2-1.8-1.8c-0.4-0.4-0.8-0.9-1.4-0.6
		c-0.7,0.3-0.3,1-0.3,1.6c0,0.4,0.2,0.8,0.2,1.2c0.1,0.6-0.4,0.9-0.9,0.6c-0.4-0.2-0.9-0.4-1.3-0.6c-2.1-1.1-4.3-1.8-6.6-2.2
		c-3.1-0.5-6.2-1-9.3-2c-2.5-0.8-4.8-1.9-6.8-3.5c-1-0.8-1.9-1.7-2.5-2.8c-1.3-2.2-1.3-4.7-1.2-7.1c0-0.5,0.3-0.9,0.7-1.2
		c0.3-0.2,0.7-0.4,1.1-0.6c2-1.2,4-2.4,6-3.6c0.8-0.5,1.5-1,2.2-1.6c0.5-0.4,0.9-0.9,1.2-1.5c0.3-0.6,0.3-1-0.2-1.5
		c-0.7-0.8-1.6-1.4-2.5-2c-0.5-0.3-1-0.2-1.5,0.1c-0.8,0.6-1.6,1.1-2.3,1.7c-1.5,1.3-2.9,2.7-4.4,4c-0.6,0.6-1.3,1.1-1.9,1.6
		c-0.3,0.2-0.6,0.2-0.8,0c-0.2-0.2-0.3-0.5-0.2-0.8c0.2-0.4,0.4-0.9,0.5-1.3c0.5-1.2,0.4-2.5,0.1-3.7c-0.1-0.6-0.5-0.9-1.2-0.9
		c-0.6,0-1.2,0.1-1.8,0.2c-1.2,0.1-2.4,0.2-3.6,0.1c-0.1,0-0.3-0.1-0.4-0.3c-0.1-0.3,0.1-0.4,0.3-0.5c0.8-0.3,1.6-0.5,2.4-0.8
		c0.7-0.3,1.3-0.5,2-0.8c0.9-0.5,1.1-1.2,0.9-2.1c-0.1-0.4-0.4-0.6-0.8-0.6c-0.1,0-0.1,0-0.2,0c-3.9,0.7-7.6-0.2-11.1-1.9
		c-3.5-1.6-6.2-4.2-8.3-7.4c-0.7-1-1.2-2.1-1.6-3.2c-0.1-0.4-0.4-0.8-0.1-1.2c0.4-0.4,0.8,0,1.1,0.1c0.3,0.2,0.6,0.3,0.9,0.5
		c1.7,1,3.3,2.1,4.7,3.6c1.1,1.1,2.3,1.9,3.7,2.4c1,0.4,2.1,0.6,3.1,0.7c0.7,0.1,1.1-0.2,1.1-0.9c0-1.9-0.1-3.8-0.6-5.7
		c-0.2-0.6-0.5-1.1-0.9-1.5c-1.1-1.2-2.2-2.4-3.3-3.5c-2-2.2-4.1-4.4-6.1-6.6c-1.3-1.4-2.2-3-2.7-4.8c-0.5-1.9-0.9-3.8-0.9-5.8
		c0-1,0.3-1.8,1-2.4c1-0.8,2.1-1.6,3.1-2.4c1.4-1.1,1.4-1.3,0-2.3c-0.2-0.2-0.5-0.3-0.8-0.5c-0.6-0.4-1.1-0.3-1.7,0
		c-0.8,0.4-1.6,0.9-2.4,1.2c-4.7,1.7-9.5,2.4-14.4,0.8c-1.1-0.4-2.3-0.7-3.4-1.2c-2.3-1-4.2-2.6-5.2-4.9c-0.1-0.2-0.2-0.4-0.3-0.7
		c-0.1-0.2-0.1-0.5,0.1-0.7c0.2-0.2,0.4-0.2,0.7-0.1c1.4,0.5,2.6,1.1,3.9,1.8c1.5,0.9,3,1.7,4.8,2c0.7,0.1,1.4,0.1,2.1,0.2
		c0.2,0,0.5-0.1,0.5-0.4c0-0.2,0-0.4-0.1-0.5c-0.3-0.3-0.7-0.6-1.1-0.9c-2.4-1.8-4.7-3.7-6.7-5.9c-1.9-2-3.7-4-5.3-6.3
		c-1.5-2-2.6-4.3-3.5-6.6c-0.1-0.2-0.2-0.5-0.2-0.7c-0.1-0.2,0-0.5,0.2-0.6c0.1-0.1,0.4,0,0.5,0c0.4,0.2,0.8,0.5,1.2,0.8
		c1.9,1.5,3.9,3,5.8,4.4c0.4,0.3,0.8,0.9,1.4,0.6c0.7-0.4,0.3-1.1,0.2-1.6c-0.8-5-0.8-10-0.3-15c0.4-4.1,1.3-8.1,2.3-12.1
		c0.1-0.6,0.3-1.2,0.4-1.7c0.1-0.5-0.3-0.9-0.8-0.8c-2.3,0.6-3.2,1.1-3.3,3.3c0,0.9-0.3,1.8-0.9,2.4c-0.4,0.4-0.9,0.4-1.1-0.1
		c-0.1-0.2-0.2-0.3-0.2-0.5c-0.5-1.9-1.5-3.6-2.6-5.3c-1.2-1.8-2.2-3.7-2.5-5.9c-0.1-0.7-0.5-0.9-1.2-0.7c-1.1,0.2-2.1,0.5-3.1,0.7
		c-1.3,0.3-2.7,0.6-4,0.8c-0.7,0.1-1.4,0.1-2.1,0.1c-0.2,0-0.4-0.1-0.4-0.2c-0.2-0.3,0.1-0.4,0.3-0.6c0.5-0.3,0.9-0.5,1.4-0.8
		c2.2-1.1,4.4-2.2,6.5-3.3c0.3-0.2,0.6-0.3,0.9-0.5c0.5-0.3,0.7-0.7,0.7-1.2c0-0.5,0-1,0.1-1.4c0.1-0.9,0.1-1.8,0.3-2.7
		c0.4-2.3,1.3-4.3,3.2-5.8c1.4-1.1,2.8-2.2,4.3-3.3c1.4-1,2.7-2.1,3.9-3.5c0.2-0.2,0.4-0.5,0.5-0.7c0.2-0.4,0-0.8-0.4-0.8
		c-0.2,0-0.5-0.1-0.7,0c-2.3,0.4-4.5,1.3-6.3,2.8c-1.2,1.1-2.4,2.2-3.6,3.2c-1.6,1.4-3.1,2.8-5,3.8c-0.9,0.5-1.7,0.8-2.7,0.7
		c-0.4,0-0.7-0.4-0.4-0.8c0.6-0.8,1.1-1.5,1.7-2.3c3.3-4.2,6.6-8.4,9.7-12.9c0.8-1.1,1.5-2.3,2.1-3.5c0.4-0.8,0.7-1.7,0-2.5
		c-0.6-0.8-1.5-0.9-2.4-0.7c-1.9,0.2-3.6,0.8-5.1,2.1c-0.6,0.5-1.2,1-1.8,1.4c-0.5,0.3-0.9,0.3-1.3-0.2c-0.3-0.3-0.5-0.7-0.7-1
		c-1.8-2.8-3.6-5.6-5.4-8.5c-2-3.1-2.9-6.5-3-10.2c-0.1-3.2,0.2-2.5-2-4.6c-2.4-2.2-4.3-4.8-5.7-7.7c-1.2-2.4-1.9-4.9-1.9-7.6
		c0-1.8,0-3.6,0-5.4c0-1.5,0.3-3,0.8-4.4c0.4-1.4,1.2-2.6,2.2-3.6c0.2-0.2,0.4-0.3,0.6-0.4c0.2-0.2,0.7,0,0.7,0.3
		c0.1,0.2,0.1,0.5,0.1,0.7c0,0.7,0.1,1.4,0,2.1c-0.1,3.4,0.7,6.6,1.9,9.8c2.3,5.7,5.7,10.6,9.8,15.1c0.3,0.3,0.6,0.5,0.9,0.8
		c0.2,0.1,0.6-0.1,0.5-0.3c0-0.3-0.1-0.6-0.1-0.9c-0.2-1.1-0.4-2.2-0.6-3.3c-0.1-0.8,0.4-1.1,1.1-0.8c0.4,0.1,0.8,0.4,1.1,0.5
		c1.1,0.5,1.5,0.2,1.4-1.1c0-0.5-0.1-0.9-0.2-1.4c-0.6-2.9-0.5-5.8-0.5-8.7c0-1.1,0.4-1.8,1.4-2.2c0.3-0.1,0.6-0.3,0.9-0.5
		c0.3-0.2,0.5-0.6,0.4-0.9c-0.1-0.4-0.2-0.7-0.3-1c-0.9-3.1-1.9-6.3-2.7-9.4c-0.8-3.1-1.6-6.2-1.8-9.5c0-0.5-0.3-1.2,0.3-1.4
		c0.5-0.2,0.8,0.4,1.1,0.7c2.5,2.7,5,5.4,7.9,7.8c1.3,1.1,2.6,2.1,4.1,2.9c0.7,0.4,1.4,0.7,2.1,1c0.1,0.1,0.4,0,0.5,0
		c0.2-0.2,0-0.4-0.2-0.6c-0.6-0.4-1.3-0.9-1.9-1.3c-2.3-1.6-4.4-3.4-6-5.8c-0.9-1.4-1.5-2.8-1.9-4.4c-0.1-0.3-0.1-0.6-0.1-0.9
		c0-0.4,0.4-0.6,0.8-0.5c0.4,0.2,0.8,0.4,1.1,0.6c2,1.4,4.2,2.2,6.6,2.5c0.6,0.1,1.3,0.3,1.9,0.3c0.8,0.1,1.7,0.2,2.5,0.3
		c0.4,0,0.9,0.1,1.1-0.3c0.3-0.5-0.2-0.8-0.5-1c-1.5-1.5-2.8-3.2-3.8-5.1c-2.3-4.3-3-8.9-2.8-13.7c0-0.7,0.1-1.4,0.2-2.1
		c0-0.4,0.1-0.7,0.2-1.1c0.2-0.6,0.7-0.8,1.1-0.4c1.8,1.5,3.6,3,3.9,5.6c0.1,0.8,0.4,1.6,0.6,2.4c0.1,0.3,0.1,0.6,0.2,0.9
		c0.1,0.2,0.2,0.5,0.5,0.5c0.3,0,0.4-0.2,0.5-0.4c0.1-0.5,0.2-0.9,0.3-1.4c0.2-1.1,0.5-2.1,0.9-3.1c0.2-0.4,0.4-0.8,0.6-1.1
		c0.8-1.4,1.3-1.4,2.2-0.1c0.7,1,1.3,2,1.9,3c0.2,0.3,0.4,0.6,0.6,0.9c0.2,0.3,0.7,0.2,0.9-0.1c0.4-0.8,0.6-1.6,0.5-2.4
		c-0.1-0.5-0.2-0.9-0.3-1.4c-0.8-4.4,0.2-8.4,3-11.9c1.2-1.5,1.9-1.6,3.5-0.1c0.4,0.4,0.7,0.8,0.8,1.4c0.2,0.7,0.5,1.5,0.7,2.2
		c1.1,3.9,3.4,6.8,6.9,8.8c0.9,0.5,1.8,1,2.7,1.4c1,0.5,1.8,0.2,2.6-0.5c1.5-1.6,2.4-3.5,3-5.6c0-0.1,0-0.2,0-0.4
		c0-0.4-0.4-0.8-0.8-0.7c-0.7,0.2-1.4,0.4-2.1,0.6c-1,0.3-1.9,0.7-2.9,1c-0.7,0.2-1.5,0.4-2.2,0.6c-0.3,0.1-0.6,0.1-0.8-0.2
		c-0.2-0.3,0-0.6,0.2-0.8c0.5-0.8,1.2-1.5,1.9-2.1c1.2-1,2.3-2.1,3.5-3.1c0.4-0.4,0.8-0.7,1-1.2c0.1-0.4-0.1-0.8-0.5-0.8
		c-0.4,0-0.7,0.1-1,0.2c-1.6,0.4-3.1,0.8-4.7,1.2c-0.2,0-0.4,0-0.4-0.2c0-0.1,0-0.3,0-0.3c0.4-0.5,0.8-1,1.3-1.5
		c2.1-2.3,3.6-4.9,4.6-7.8c0.5-1.6,0.7-3.3,0.7-4.9c0.1-2,0-4.1,0-6.1c0-2.6-0.1-5.2-0.2-7.9c0-1.6-0.1-3.2-0.4-4.8
		c-0.2-1.2-0.2-2.5-0.1-3.7c0-0.4,0.1-0.7,0.1-1.1c0-0.2-0.1-0.3-0.2-0.4c-0.2-0.2-0.5-0.1-0.7,0.1c-0.2,0.1-0.4,0.3-0.5,0.5
		c-0.3,0.4-0.6,0.7-0.9,1.1c-1,1.3-2,2.6-3.1,3.7c-0.2,0.2-0.6,0.5-0.5,0.9c0.2,0.5,0.7,0.4,1.1,0.4c0.5,0,1.1,0,1.6,0
		c1.3,0.1,1.7,0.8,1.5,2.1c-0.4,2.4-1.5,4.2-3.4,5.6c-0.7,0.5-1.4,1.1-2,1.7c-1.2,1.1-2.6,1.7-4.1,2.1c-3.9,1-7.9,1.4-11.9,0.8
		c-2.3-0.3-4.5-1-6.7-2c-1.6-0.7-2.3-2-2.9-3.5c-0.2-0.5,0.1-0.9,0.7-0.9c1,0,1.9,0.1,2.9,0.1c0.6,0,1.2,0,1.8-0.1
		c0.2,0,0.4-0.1,0.4-0.3c0-0.2-0.2-0.3-0.3-0.4c-0.4-0.2-0.9-0.3-1.3-0.5c-0.9-0.3-1.7-0.5-2.6-0.8c-0.1-0.1-0.3-0.2-0.4-0.4
		c-0.1-0.3,0.1-0.5,0.3-0.6c0.3-0.2,0.6-0.3,1-0.5c1.9-0.8,3.7-1.6,5.6-2.3c3.9-1.5,7.4-3.5,10.9-5.8c4.4-2.9,8.6-6,12.7-9.3
		c0.3-0.2,0.6-0.5,0.8-0.7c0.4-0.4,0.6-0.9,0.6-1.4c0-0.2,0-0.4,0-0.5c-0.2-3.2,0.5-6.3,1.5-9.3c1.4-4.1,3.2-8.1,5.2-12
		c1.1-2.2,2.6-4.1,4.1-6.1c2.1-2.7,4.2-5.3,6-8.2c0.8-1.4,1.6-2.8,2.3-4.2c2.3-4.8,4.8-9.6,7.3-14.4c1.6-3,3.3-6.1,5.3-8.9
		c3.2-4.5,7.3-7.6,12.5-9.5c1.7-0.6,3.5-1,5.4-1.2c0.3,0,0.6,0,0.9,0c0.2,0.1,0.4,0.3,0.3,0.6c-0.1,0.4-0.3,0.8-0.6,1.1
		c-1.4,1.5-3.1,2.8-5.1,3.4c-0.3,0.1-0.6,0.2-0.8,0.3c-0.3,0.1-0.3,0.6-0.1,0.8c0.6,0.5,1.2,0.7,2,0.7c0.6,0,1.2-0.1,1.8-0.3
		c0.8-0.3,1.6-0.3,2.5-0.3c0.3,0,0.6,0.1,0.7,0.4c0.1,0.2-0.1,0.5-0.2,0.6c-1.2,1.3-2.6,2.3-4.2,2.9c-1.8,0.7-3.5,1.4-5.3,2.1
		c-0.4,0.2-0.9,0.3-1.3,0.5c-0.3,0.1-0.6,0.2-0.5,0.6c0.1,0.3,0.4,0.5,0.7,0.5c0.6,0.1,1.2,0.2,1.8,0.2c2.3,0.1,4.5,0.2,6.8,0.1
		c0.6,0,1.2,0,1.8,0c0.2,0,0.5,0.1,0.6,0.4c0.1,0.3,0,0.6-0.2,0.8c-0.3,0.3-0.7,0.5-1,0.7c-1.1,0.7-2.2,1.1-3.4,1.5
		c-3.6,1.1-7,2.7-10.2,4.7c-2.5,1.5-4.9,3.1-7.3,4.8c-0.3,0.2-0.7,0.5-1,0.8c-0.2,0.2-0.6,0.4-0.5,0.7c0.2,0.5,0.6,0.1,0.9,0
		c2.6-0.8,5.1-1.6,7.7-2.3c0.7-0.2,1.4-0.8,2.1-0.1c-0.2,0.8-0.9,1.1-1.4,1.5c-3.1,2.3-6.1,4.5-9.2,6.8c-2.5,1.8-4.7,3.9-6.6,6.3
		c-2.5,3.1-4.7,6.3-6.5,9.8c-1.1,2.1-1.9,4.3-2.4,6.5c-1.4,5.4-2.1,10.9-2.4,16.4c-0.1,2,0.1,4.1,0.4,6.1c0.3,2.6,0.7,5.2,1.1,7.8
		c0,0.3,0.1,0.6,0.2,0.9c0.2,0.5,0.8,0.7,1.1,0.3c0.2-0.3,0.4-0.6,0.6-0.9c1-1.5,2.3-2.8,3.5-4c0.3-0.3,0.7-0.6,1.1-0.9
		c0.2-0.2,0.5-0.3,0.8-0.1c0.2,0.1,0.3,0.4,0.3,0.6c0,1.3-0.2,2.5-0.5,3.7c-0.9,3.4-1.8,6.8-2.6,10.2c-0.1,0.5-0.2,0.9-0.3,1.4
		c0,0.1,0,0.3,0.1,0.3c0.1,0.1,0.2,0,0.3,0c0.6-0.3,0.9-0.8,1.3-1.2c1.1-1.4,2.3-2.7,3.6-3.9c0.5-0.5,1.1-1,1.7-1.4
		c0.8-0.6,1.4-0.4,1.6,0.5c0.3,1.6,0.7,3.3,0.9,4.9c0.4,3.4,0.5,6.8,0.4,10.2c0,0.2,0,0.5,0.1,0.7c0.1,0.1,0.2,0.3,0.4,0.3
		c0.1,0,0.4-0.1,0.4-0.2c0.4-0.6,0.4-1.4,0.6-2.1c0.3-1.3,0.5-2.7,0.8-4c0.2-0.8,0.5-1.6,1-2.3c0.1-0.2,0.3-0.4,0.5-0.5
		c0.3-0.2,0.8,0,0.9,0.3c0.2,0.8,0.1,1.7,0,2.5c-0.1,0.8-0.3,1.6-0.4,2.5c-0.1,0.7,0.1,0.9,0.9,0.8c0.6,0,0.8,0,1,0.7
		c0.7,2.3,1,4.5,0.3,6.9c-0.1,0.3-0.2,0.6-0.3,0.9c-0.2,0.5-0.1,1.1,0.2,1.5c0.2,0.3,0.3,0.5,0.5,0.7c1.8,2.5,2.6,5.3,2.8,8.4
		c0.2,2.4,0.1,4.8-0.1,7.1c-0.3,2.4-0.9,4.8-1.6,7.2c-0.9,3.4-2.3,6.5-4.1,9.5c-0.3,0.6-0.7,1.1-1.2,1.6c-0.2,0.3-0.5,0.6-0.9,0.4
		c-0.3-0.2-0.3-0.5-0.3-0.8c0.1-1.1,0.1-2.1,0.3-3.2c0.2-1.2,0.3-2.5,0.3-3.7c0.2-3.7-0.4-7.3-1.1-10.8c0-0.2-0.1-0.4-0.2-0.7
		c-0.1-0.2-0.5-0.2-0.6-0.1c-0.4,0.4-0.6,0.9-0.7,1.4c-0.3,1.2-0.6,2.4-0.8,3.7c-0.3,2.7-0.8,5.3-1.4,7.9c-0.3,1.4-0.9,2.7-1.4,4
		c-0.4,0.9-0.6,1-1.7,0.9c-0.2,0-0.5-0.1-0.7-0.1c-1.5-0.3-2.8,0.2-3.9,1.2c-0.9,0.9-1.8,1.7-2.7,2.6c-0.8,0.9-1.9,1.5-2.9,2.1
		c-0.8,0.4-1.2,0.2-1.3-0.7c-0.1-0.5-0.1-1.1-0.2-1.6c-0.2-3.2-0.3-6.4,0-9.7c0.3-2.7-0.1-5.4-0.4-8c0-0.2-0.1-0.5-0.2-0.7
		c0-0.1-0.2-0.2-0.3-0.2c-0.2,0-0.3,0.1-0.5,0.2c-0.1,0.1-0.2,0.3-0.3,0.4c-1,2.6-2.1,5.1-3.4,7.5c-1.2,2.4-1.9,5-2.2,7.7
		c0,0.2-0.1,0.5-0.1,0.7c0.1,0.6-0.3,1.3,0.4,1.8c0.6-0.2,0.8-0.9,1.1-1.3c0.1-0.2,0.2-0.4,0.4-0.6c0.3-0.4,0.7-0.4,1.1-0.1
		c0.5,0.5,0.8,1,1,1.7c0.4,1.1,0.7,2.1,0.8,3.3c0.1,2.6,0.3,5.2,0.4,7.9c0.1,1.7-0.3,3.4-0.7,5.1c-0.2,0.9-0.4,1.9-0.7,2.8
		c-0.4,1.6-0.3,3.2,0,4.8c0.2,1.1,0.7,2,1.5,2.8c2.9,3.2,6.2,5.9,10,8.1c1.8,1.1,3.5,2.3,5.1,3.6c1.7,1.3,3.1,3,3.9,5
		c0.4,0.9,0.6,1.8,0.6,2.8c0,0.6-0.4,1-1.1,0.8c-1-0.3-2-0.7-3-1.2c-3-1.5-5.6-3.6-8.2-5.7c-2-1.6-4-3.2-6-4.8
		c-0.6-0.5-1.3-0.9-1.9-1.3c-0.5-0.3-1.1-0.1-1.3,0.5c-0.1,0.2-0.1,0.3-0.2,0.5c-1.2,3.7-2.4,7.4-3.5,11.1
		c-1.1,3.7-1.3,7.5-1.1,11.3c0.3,5.5,1.2,11,2.5,16.4c0.7,2.7,1.5,5.4,2.2,8.1c1.2,4,2.2,7.9,3.1,11.9c0.7,3.2,1.4,6.4,2,9.6
		c0.3,1.6,0.5,3.3,0.7,5c0.4,3.2,0.8,6.4,1.1,9.6c0.3,2.2,0.3,4.4,0.3,6.6c0,7.1,0.5,14.2,0.8,21.3c0.1,2.9,0.4,5.7,0.6,8.6
		c0.1,1.4,0.5,2.7,0.8,4c1.4,5.2,2.9,10.3,4.6,15.4c3.3,10.4,7.5,20.3,13.2,29.7c4,6.5,8.5,12.6,13.2,18.5
		c5.8,7.2,12.2,13.8,19,20.1c10.1,9.4,20.7,18.2,31.7,26.5c1.1,0.9,2.3,1.8,3.4,2.6c0.7,0.5,1,0.5,1.7-0.1c1-0.9,2.1-1.2,3.3-0.8
		c1.2,0.3,2.4,0.7,3.6,1.1c3.8,1.4,7.7,2.6,11.7,3.5c2.7,0.6,5.4,1.1,8.1,1.3c2.6,0.2,5.1,0.5,7.7,0.5c8.6,0.3,17-1,25.2-3.4
		c4.1-1.2,8.2-2.6,12.1-4.3c5.1-2.2,9.7-5.2,13.9-8.7c3.3-2.8,6.3-5.8,9.1-9.1c2.2-2.6,3.8-5.5,5.2-8.5c1.7-3.9,3.1-7.9,4.1-12
		c0.2-0.8,0.3-1.6,0.5-2.5c0.2-0.7-0.1-1.3-0.7-1.7c-1-0.7-2-1.3-3.1-1.8c-2.3-1.1-4.7-1.7-7.2-2.2c-1.9-0.4-3.9-0.6-5.8-1
		c-0.5-0.1-0.9-0.2-1.4-0.3c-0.4-0.1-0.5-0.6-0.2-0.9c0.2-0.2,0.4-0.4,0.6-0.6c2.5-2,5-3.8,7.7-5.5c0.8-0.5,1.6-0.7,2.6-0.6
		c5.9,0.7,11.4-0.7,16.5-3.6c5.7-3.3,10.1-7.9,13.4-13.6c1.3-2.2,2-4.7,2.7-7.2C544.4,480.9,545.2,475.3,545.1,469.9z"/>
	<path d="M360.4,182.4c-0.7,0.3-1.1,0.9-1.5,1.4c-0.5,0.5-0.9,1.1-1.4,1.6c-0.4,0.4-0.9,0.3-1.2-0.2c-0.4-0.8-0.3-1.6-0.1-2.4
		c0.6-1.9,1.4-3.7,2.5-5.3c1.9-3,4.3-5.4,7.2-7.3c0.3-0.2,0.7-0.4,1-0.8c0.1-0.1,0.1-0.2,0-0.3c0-0.1-0.2-0.2-0.3-0.2
		c-0.2,0-0.4,0-0.5,0c-1.6,0.4-3.1,0.8-4.6,1.5c-1.6,0.7-3.2,1.4-4.8,2c-0.3,0.1-0.7,0.2-1,0.3c-0.4,0.1-0.7-0.3-0.6-0.6
		c0.1-0.5,0.3-1,0.5-1.5c1.7-3.8,4.4-6.6,7.9-8.7c1.4-0.9,2.9-1.6,4.5-2.3c0.3-0.1,0.7-0.3,1-0.4c0.3-0.1,0.7-0.3,0.7-0.7
		c0-0.5-0.5-0.4-0.8-0.5c-0.6-0.1-1.2-0.2-1.7-0.4c-0.6-0.2-0.7-0.8-0.2-1.3c0.9-0.7,1.8-1.4,2.6-2.1c0.3-0.3,0.8-0.3,1.2-0.2
		c0.9,0.3,1.9,0.2,2.8,0.1c2-0.1,4,0,6,0.6c1,0.3,1.6,0.2,1.6-0.2c0.1-0.7-0.5-0.9-0.9-1.3c-0.9-0.9-2-1.3-3.2-1.2
		c-0.6,0-1.2,0-1.8-0.1c-0.6-0.1-0.9-0.6-0.5-1.2c0.1-0.2,0.3-0.4,0.4-0.6c1.3-1.4,2.9-2.4,4.9-2.6c2-0.2,3.9-0.4,5.9-0.3
		c1.4,0.1,2.9,0.1,4.3,0.1c0.3,0,0.6,0,0.9-0.2c0-0.3-0.2-0.4-0.4-0.5c-1.4-0.5-2.9-0.4-4.4-0.4c-1.3,0-2.6,0-3.9,0
		c-0.2,0-0.5,0-0.7,0c-0.5-0.1-0.7-0.5-0.4-0.9c0.5-0.7,1.2-1.3,2-1.7c0.9-0.4,1.9-0.6,2.9-0.8c0.7-0.2,1.7,0.2,2.2-0.8
		c-0.7-0.7-1.6-0.4-2.4-0.5c-1.4-0.1-2.7-0.1-4.1-0.1c-0.6,0-1.2-0.1-1.7-0.4c-0.2-0.1-0.4-0.3-0.4-0.5c0-0.1,0.2-0.3,0.3-0.4
		c0.5-0.2,1.1-0.4,1.7-0.6c0.2-0.1,0.3-0.1,0.5-0.2c0.1-0.1,0.1-0.2,0.1-0.3c0-0.1-0.1-0.2-0.2-0.3c-0.3-0.1-0.6-0.1-0.9-0.1
		c-2.1,0-4,0.7-6,1.1c-2.4,0.5-4.8,1.1-7.2,1.6c-0.8,0.2-1.7,0.2-2.5,0.2c-0.6,0-0.8-0.5-0.5-1c0.6-0.9,1.3-1.5,2.2-2
		c1.6-1,3.4-1.8,5.2-2.5c4.5-1.7,9.2-3,13.9-4c1.9-0.4,3.7-0.9,5.6-1.3c0.2,0,0.3-0.2,0.3-0.4c0-0.1-0.2-0.2-0.3-0.2
		c-0.5-0.1-1.1-0.1-1.6-0.2c-0.4-0.1-0.5-0.6-0.3-0.9c0.6-0.7,1.3-1.2,2.2-1.5c0.8-0.3,1.7-0.6,2.5-0.8c0.6-0.2,0.9-0.5,0.8-0.8
		c-0.1-0.4-0.5-0.5-0.9-0.6c-2.3-0.4-4.6-0.4-6.9,0.2c-0.9,0.2-1.8,0.5-2.7,0.8c-0.2,0.1-0.3,0.1-0.5,0.2c-0.2,0.1-0.5,0.1-0.7-0.1
		c-0.2-0.2-0.2-0.6-0.1-0.8c0.2-0.5,0.5-1,0.8-1.4c1-1.3,2.3-2.1,3.7-2.8c0.7-0.3,1.4-0.6,2.1-0.9c0.2-0.1,0.3-0.2,0.2-0.4
		c-0.1-0.1-0.2-0.2-0.3-0.2c-0.6-0.2-1.2-0.2-1.8,0.1c-1.2,0.6-2.5,0.6-3.8,0.9c-2,0.5-3.9,0.9-5.9,1.4c-0.5,0.1-1.1,0.2-1.6,0.2
		c-0.6,0-1-0.4-0.9-1.1c0.2-1.1,0.7-2.1,1.6-2.7c0.8-0.5,1.6-1,2.5-1.4c2.3-1.1,4.8-1.8,7.3-2.2c1.4-0.2,2.7-0.4,4.1-0.6
		c1.7-0.3,3.4-0.8,4.9-1.6c0.5-0.3,1.1-0.6,1.4-1c0.2-0.3,0.1-0.8-0.2-0.9c-0.9-0.2-1.7-0.4-2.6-0.5c-2.4-0.3-4.7-0.8-7-1.4
		c-0.4-0.1-0.8-0.2-1.2-0.4c-0.4-0.2-0.7-0.5-0.7-0.9c0-0.6,0.4-0.9,0.8-1.1c0.3-0.2,0.7-0.3,1-0.4c2.2-0.8,4.6-1.4,6.9-1.9
		c3.1-0.7,6.3-1.3,9.5-1.5c1-0.1,2-0.4,3-0.7c0.3-0.1,0.6-0.2,0.5-0.6c0-0.3-0.3-0.4-0.5-0.5c-1.4-0.4-2.8-0.7-4.2-0.7
		c-2.7,0.1-5.4,0.3-8,1c-0.2,0-0.3,0.1-0.5,0.1c-0.3,0.1-0.6,0.1-0.8-0.2c-0.2-0.3,0-0.6,0.3-0.8c1.4-1.3,3-2.2,4.8-2.6
		c0.8-0.2,1.5-0.3,2.3-0.5c0.1,0,0.3-0.2,0.4-0.3c0-0.1-0.1-0.3-0.3-0.4c-1.3-0.5-2.7-0.9-4.2-0.9c-8.1-0.1-16.1-0.2-24.1-0.3
		c-0.5,0-1.1,0.2-1.3-0.3c-0.3-0.6,0.4-0.9,0.8-1.2c0.3-0.3,0.9-0.4,1.1-0.8c-0.2-0.5-0.6-0.4-0.9-0.4c-1.7,0-3.5,0.1-5.2,0.1
		c-2.7,0.1-5.5-0.1-8.2-0.3c-0.5,0-1.2,0-1.4-0.6c-0.2-0.5,0.3-0.8,0.7-1.2c1.2-1.1,2.5-1.9,4.2-2.3c3.2-0.7,6.3-1.1,9.6-1.3
		c0.7,0,1.3-0.1,2-0.1c1,0,1.8-0.3,2.3-1.4c0.4-0.9,1.2-1.5,2.2-1.6c0.6,0,1-0.3,1.4-0.7c0.7-0.7,1.4-1.3,2.4-1.6
		c0.5-0.2,0.6-0.7,0.2-1c-0.7-0.5-1.5-1-2.2-1.5c-0.3-0.2-0.7-0.4-1-0.7c-1.1-1-1.1-2.3,0.2-3.1c0.5-0.4,0.9-0.7,0.8-1.4
		c0-0.3,0.2-0.4,0.5-0.4c0.3,0,0.6-0.1,0.9-0.1c3.4,0,6.8-0.1,10.2-0.1c1,0,1.9,0.1,2.8,0.4c0.7,0.2,1.4,0.3,2.1,0.3
		c0.5,0,1.1,0.1,1.6,0.1c0.4,0,1,0.6,1.2,0c0.1-0.5-0.6-0.7-1-0.9c-2.7-1.6-5.4-3.1-8-4.7c-0.4-0.2-0.8-0.5-1.2-0.8
		c-0.5-0.4-0.5-0.8,0.1-1.1c0.4-0.2,0.9-0.4,1.3-0.6c0.3-0.2,0.3-0.5,0.1-0.8c-0.1-0.2-0.3-0.4-0.5-0.5c-1-0.7-0.8-1.3,0.4-1.6
		c0.5-0.1,1-0.3,1.5-0.5c1.8-0.8,3.7-0.7,5.6-0.4c4.5,0.7,8.8,2.1,12.9,4.1c0.5,0.3,1.1,0.5,1.6,0.7c1.1,0.3,1.8-0.3,1.6-1.4
		c0-0.2-0.1-0.5-0.2-0.7c-0.4-1.1,0.2-1.4,1-1.6c1-0.1,1.9,0.1,2.8,0.3c0.7,0.1,1.4,0.3,2.1,0.4c0.3,0,0.6-0.1,0.7-0.4
		c0.2-1.4,1.1-1.8,2.4-1.7c0.2,0,0.4,0,0.4-0.3c0-0.1,0-0.3-0.1-0.3c-0.4-0.3-0.7-0.6-1.1-0.9c-3.8-2.7-7.7-5.5-11.5-8.2
		c-1.6-1.1-3.1-2.2-4.7-3.3c-0.3-0.2-0.6-0.4-0.8-0.7c-0.1-0.2-0.1-0.5,0.1-0.6c0.1-0.1,0.2-0.2,0.3-0.2c2.1-0.3,4.2-1.1,6.4-0.9
		c0.8,0.1,1.5-0.1,2.3-0.1c0.4,0,0.9-0.1,0.9-0.6c0-0.5-0.4-0.7-0.8-0.9c-1.5-0.7-3-1.2-4.7-1.1c-0.7,0-1.4,0-2.1,0
		c-0.2,0-0.5-0.1-0.7-0.2c-0.1,0-0.2-0.2-0.2-0.3c0-0.1,0-0.3,0.1-0.3c0.3-0.2,0.7-0.5,1.1-0.6c1.9-0.7,3.8-1.2,5.9-1.4
		c5.2-0.3,9.9,1.2,14.1,4.1c4.1,2.9,7.4,6.6,10.2,10.7c0.6,0.9,1.1,2,1.6,3c0.4,1,0.6,2.1,0.6,3.1c0,1.4,0.3,1.6,1.7,1.6
		c0.4,0,0.8,0,1.3,0c1.7,0,3.3,0,5,0.3c0.7,0.1,1.4,0.1,2.1,0c0.8-0.2,1.6-0.3,2.5-0.5c1-0.2,2-0.3,3-0.1c1.2,0.2,2.5,0,3.7,0.6
		c0.4,0.2,0.8-0.1,1.1-0.3c0.7-0.5,1.3-1,2-1.5c1.4-0.9,1.9-0.6,2,1c0.1,1.1-0.3,1.8-1.1,2.5c-0.4,0.3-0.9,0.6-1.3,1
		c-0.2,0.2-0.4,0.5-0.4,0.8c-0.1,0.3,0.2,0.8,0.6,0.7c0.3-0.1,0.7-0.1,1-0.3c0.7-0.3,1.4-0.7,2.1-1c0.3-0.1,0.7-0.4,1-0.1
		c0.4,0.4,0,0.8-0.2,1.1c-0.2,0.3-0.5,0.7-0.8,1c-0.6,0.6-0.9,1.3-1.3,2.1c-0.7,1.6-1.3,3.1-1.8,4.8c-0.2,0.8-0.8,1.4-1.2,2.2
		c-0.2,0.4,0,0.8,0.4,0.8c0.5,0.1,1.1,0.1,1.6,0.1c3.9,0,7.8,0.1,11.6,0c1.1,0,2.2,0.1,3.3,0.5c1.8,0.6,3.5,1,5.3,1.6
		c0.3,0.1,0.7,0.2,0.8,0.6c0,0.3-0.3,0.8-0.7,0.9c-0.3,0.1-0.6,0.2-0.9,0.2c-1.1,0-2.3,0.1-3.4-0.3c-0.4-0.1-0.8-0.2-1.2-0.2
		c-1-0.1-1.9-0.1-2.8-0.4c-0.3-0.1-0.7-0.2-1,0.2c0.5,0.4,1.1,0.3,1.7,0.5c0.5,0.2,1,0.3,1.5,0.5c0.8,0.3,1.7,0.5,2.5,0.9
		c0.7,0.3,1.3,0.5,2.1,0.6c0.8,0.1,1.5,0.4,2.2,0.7c2.2,1.1,4.3,2.4,6.2,3.9c0.2,0.2,0.4,0.3,0.5,0.5c0.7,0.7,0.7,1.1-0.1,1.7
		c-0.1,0.1-0.2,0.1-0.3,0.2c-0.5,0.4-0.5,0.7-0.1,1.2c1,1,1.9,2.1,2.7,3.3c1.5,2.3,2.9,4.7,3.5,7.4c0,0.2,0.1,0.3,0.1,0.5
		c0.1,0.6-0.2,0.9-0.8,0.8c-0.4-0.1-0.8-0.2-1.2-0.3c-0.1,0-0.2,0-0.3,0.1c-0.1,0.1-0.1,0.3,0,0.3c0.3,0.4,0.6,0.9,1,1.3
		c1,1.1,2,2.2,3,3.3c2.4,2.8,4.6,5.8,6.4,9c1.1,2,2.1,4,2.6,6.3c0.1,0.4,0.4,1,0,1.4c-0.5,0.5-1,0.1-1.5-0.1
		c-1.5-0.6-2.9-1.3-4.1-2.5c-0.5-0.5-0.6-0.5-1.3,0c-0.4,0.3-0.7,0.3-1.1,0.1c-1-0.6-2.1-1.1-3.3-1.1c-0.4,0-0.9-0.3-1.3-0.5
		c-1.3-0.6-2.6-1.2-3.9-1.8c-1.9-0.9-3.8-1.3-5.9-1.5c-0.3,0-0.6-0.1-0.9,0.1c-0.1,0.1-0.3,0.3-0.1,0.5c0.2,0.2,0.4,0.4,0.7,0.6
		c1.2,0.6,2.4,1,3.7,1.3c1.4,0.4,2.9,0.7,4.3,1.3c2,0.7,3.1,2.3,4.2,4c0.1,0.2,0.2,0.4,0.2,0.7c0.1,0.9-0.4,1.4-1.3,1
		c-0.4-0.2-0.8-0.3-1.2-0.5c-0.1,0-0.4,0-0.5,0.1c-0.2,0.2-0.1,0.4,0.1,0.6c0.3,0.4,0.7,0.6,1.2,0.8c1.7,0.8,3.5,1.6,5.1,2.5
		c1.6,0.8,3.3,1.7,4.9,2.7c1.8,1,3.1,2.6,4.2,4.3c0.1,0.2,0.2,0.4,0.3,0.6c0.1,0.3-0.1,0.6-0.4,0.7c-0.5,0.1-0.9,0.1-1.4,0.2
		c-0.5,0.1-0.7,0.7-0.4,1.1c0.3,0.3,0.6,0.6,0.8,0.9c0.7,0.8,1.3,1.5,2,2.3c1.1,1.2,1,2.6,0.9,4.1c0,0.3-0.3,0.4-0.6,0.5
		c-0.9,0.3-1,0.4-0.8,1.2c0.3,1.2,0.7,2.3,0.9,3.4c0.6,3.2,1.5,6.4,3.1,9.3c0.2,0.3,0.2,0.7,0.3,1c0,0.1-0.1,0.4-0.2,0.5
		c-0.1,0.1-0.4,0.1-0.5,0c-0.8-0.4-1.4-1-2.1-1.7c-0.5-0.5-0.6-0.5-1.1-0.1c-0.4,0.3-0.9,0.6-1.3,0.9c-0.6,0.5-0.7,1.1-0.2,1.7
		c0.3,0.4,0.7,0.7,1,1c0.6,0.5,1.2,1,1.7,1.6c1,1.2,0.9,1.9-0.1,3c-0.3,0.3-0.6,0.6-0.9,0.8c-0.9,0.9-1,1.2-0.4,2.3
		c0.7,1.3,1.4,2.6,2.4,3.8c0.6,0.7,0.7,1.5,0.6,2.3c-0.1,0.6-0.3,0.8-0.9,0.8c-0.9,0.1-0.9,0.1-1.1,1c-0.1,0.3-0.1,0.6-0.2,0.8
		c-0.6,0.7-0.2,1.4,0.2,1.9c0.5,0.6,1,1.1,1.5,1.7c0.4,0.5,0.4,0.9-0.1,1.4c-0.5,0.6-1,0.7-1.6,0.4c-0.6-0.4-1.1-0.9-1.7-1.3
		c-0.3-0.2-0.6-0.1-0.6,0.3c0,0.3,0.2,0.7-0.1,1c-0.4,0.3-0.8,0-1.2-0.2c-0.7-0.3-1.4-0.8-2-1.1c-0.2-0.1-0.5-0.3-0.6,0
		c-0.2,0.2-0.1,0.5,0.1,0.7c0.3,0.5,0.6,0.9,0.8,1.4c0.4,0.9,0.8,1.7,1.2,2.6c0.1,0.3,0.2,0.7-0.2,1c-0.3,0.2-0.6,0.2-0.8,0.1
		c-1.8-0.6-3.4-1.6-4.4-3.2c-2.4-3.9-4.2-8-5.1-12.5c-0.2-1.2-0.4-2.5-0.3-3.7c0.1-0.7,0.4-0.9,1-1c0.2,0,0.5,0,0.7,0
		c1,0,1-0.1,0.8-1c0-0.2-0.1-0.3-0.1-0.5c-0.1-0.5,0.1-0.7,0.6-0.9c0.2-0.1,0.4-0.1,0.5-0.1c0.5-0.2,0.6-0.5,0.3-1
		c-0.2-0.3-0.3-0.5-0.5-0.7c-0.4-0.6-0.8-1.2-1.3-1.7c-0.5-0.5-0.6-1.1-0.6-1.8c0.1-1.5,0.1-3.1,0.2-4.6c0.1-0.8-0.1-1.4-0.6-2
		c-1-1.1-2.1-2-3.4-2.6c-1.8-0.8-3.5-1.6-4.8-3c-0.1-0.1-0.3-0.2-0.4-0.3c-0.3-0.1-0.6,0.1-0.7,0.4c0,0.3-0.1,0.6-0.1,0.9
		c0,0.6,0,1.2,0,1.8c0,1.1,0,2.1-0.4,3.2c-0.4,0.9-0.4,1.9-0.3,2.8c0,1.8,0.1,3.6,0.1,5.4c0,1,0,1.9-0.4,2.8
		c-0.3,0.8-0.3,1.6-0.4,2.5c-0.1,2.1-1,3.8-2.1,5.4c-0.1,0.2-0.3,0.3-0.5,0.5c-0.2,0.1-0.6,0-0.6-0.2c-0.1-0.5-0.1-0.9-0.1-1.4
		c-0.1-5.7-0.2-11.4-0.2-17.2c0-3.8-0.6-7.5-1.4-11.2c-0.2-1.1-0.5-2.2-0.8-3.3c-0.9-2.8-2.3-5.2-4.5-7.1c-2.2-1.9-4.3-4-6.4-5.9
		c-0.5-0.4-1-0.9-1.5-1.3c-0.6-0.5-1.2-0.4-1.7,0.2c-0.4,0.4-0.4,0.9-0.2,1.3c0.3,0.4,0.6,0.9,1,1.3c1.9,2.3,3.9,4.7,5.8,7.1
		c1.1,1.4,2.2,3,3.2,4.5c0.7,0.9,0.9,1.9,0.8,3c-0.1,1.4-0.1,2.7-0.2,4.1c0,0.4-0.2,0.8-0.7,0.9c-0.4,0.1-0.9,0-1.1-0.3
		c-0.4-0.5-0.7-1-1-1.5c-0.4-0.7-0.7-1.5-1.3-2.1c-0.1-0.1-0.3-0.2-0.5-0.1c-0.1,0.1-0.2,0.2-0.2,0.3c0,0.4,0,0.7,0.1,1.1
		c1.4,5.9,1.5,11.8,1,17.8c-0.6,6.2-1.9,12.4-3.7,18.4c-1.4,4.5-3.7,8.5-6.4,12.3c-0.8,1.2-1.7,2.3-2.5,3.5c-0.4,0.6-0.9,1-1.6,0.5
		c-0.5-0.3-0.9,0-1.2,0.4c-1.1,1.6-2.3,3.2-3.3,4.9c-4.2,6.8-7.3,14.1-9.3,21.8c-1.2,4.6-2.1,9.3-2.4,14.1
		c-0.3,4.2-0.8,8.4-1.2,12.6c-0.1,1.5-0.2,3-0.4,4.5c-0.1,0.6-0.1,1.2-0.3,1.8c0,0.2-0.2,0.4-0.5,0.5c-0.2,0-0.5-0.1-0.6-0.3
		c-0.3-0.4-0.7-0.9-0.9-1.3c-3.2-4.9-4.2-10.3-3.9-16.1c0.3-4.9,1.4-9.5,2.8-14.2c1.3-4.6,3.4-8.9,5.6-13.1
		c4.5-8.6,8.9-17.3,13.5-25.8c2.6-4.8,4.2-9.9,5.5-15.1c0.6-2.3,1.2-4.6,1.7-7c0.5-2.2,1-4.3,1.1-6.5c0.1-0.9,0.1-1.8-0.1-2.7
		c0-0.1-0.2-0.3-0.3-0.4c-0.2-0.1-0.3,0.1-0.4,0.2c-0.1,0.2-0.3,0.4-0.4,0.6c-0.4,0.4-0.8,0.4-1,0c-0.6-0.8-1.1-1.7-1.3-2.7
		c-0.2-1.2-0.5-2.4-1-3.6c-0.1-0.3-0.3-0.7-0.6-0.9c-0.1-0.1-0.4-0.1-0.5,0c-0.1,0.1-0.3,0.3-0.3,0.4c0.2,0.8,0.4,1.6,0.7,2.4
		c0.3,0.7,0.4,1.5,0.5,2.3c0,0.2,0,0.5,0,0.7c-0.1,0.5-0.7,0.7-1.1,0.4c-0.5-0.3-0.7-0.8-1-1.3c-0.9-1.6-1.8-3.2-2.8-4.8
		c-1.1-1.8-2.4-3.4-4-4.7c-0.2-0.2-0.5-0.4-0.7-0.5c-0.1-0.1-0.4-0.1-0.5,0c-0.1,0.1-0.2,0.3-0.2,0.5c0,0.3,0.1,0.6,0.2,0.9
		c0.4,1.4,0.5,2.8,0.5,4.2c0,1.5,0.1,3.1,0.1,4.6c0,3.5-0.9,6.7-2.7,9.7c-0.6,1-1.2,2-1.9,3.1c-0.3,0.4-0.5,0.9-1.1,0.7
		c-0.7-0.2-1.2-0.8-1.2-1.4c0-0.5,0.1-0.9,0.3-1.4c0.6-1.9,1.1-3.9,1.8-5.8c0.2-0.6,0.8-1.3,0.1-2c-0.9,0.1-1.1,0.9-1.4,1.4
		c-1.9,3-4.1,5.9-6.5,8.6c-1.6,1.8-3.5,3.1-5.4,4.3c-0.2,0.1-0.3,0.2-0.5,0.2c-0.4,0.1-0.8,0-0.8-0.4c-0.2-1.2-0.1-2.4,1-3.2
		c1.1-0.9,2.3-1.7,3.3-2.7c0.3-0.3,0.7-0.7,0.8-1.1c0-0.1-0.1-0.3-0.1-0.5c0-0.1-0.2-0.1-0.3-0.1c-0.6,0.1-1.1,0.4-1.6,0.7
		c-2.3,1.4-4.3,3-6.1,5c-2.2,2.4-4.4,4.9-6.6,7.3c-0.9,1-1.8,2-2.7,3.1c-1.9,2.2-4.1,4.1-6.4,5.9c-0.3,0.2-0.6,0.4-0.9,0.6
		c-0.6,0.3-1.1,0.3-1.7,0.1c-0.3-0.1-0.5-0.6-0.4-0.9c0.3-0.5,0.6-1,1-1.5c0.8-0.9,1.6-1.8,2.3-2.7c0.7-0.9,1.4-1.8,1.9-2.8
		c0.1-0.3,0.3-0.6,0-0.8c-0.2-0.1-0.5,0.1-0.6,0.2c-0.3,0.3-0.6,0.6-0.9,0.9c-6.1,6.3-12.3,12.7-18.4,19c-1.7,1.8-3.2,3.7-4.7,5.7
		c-2.4,3.3-4.7,6.6-6.6,10.2c-3.5,6.7-5.4,13.7-5.4,21.3c0,3.2,0.5,6.3,1.3,9.4c0.9,3.3,1.9,6.7,2.8,10c0.1,0.4,0.5,1,0.1,1.3
		c-0.6,0.4-0.9-0.3-1.2-0.7c-2.1-2.3-3.8-4.9-5.1-7.7c-1.9-3.9-3.3-7.9-4.1-12.2c-0.3-1.9-0.4-3.8-0.4-5.7c0-2.9,0.4-5.8,1.2-8.7
		c1.1-3.9,2.4-7.7,3.9-11.5c0.3-0.7,0.6-1.3,0.9-1.9c0.2-0.3,0.5-0.5,0.9-0.6c0.6-0.1,1.1,0.3,1.1,0.9c0,0.2,0,0.5,0,0.7
		c-0.2,2.2-0.5,4.4-1.2,6.5c-0.1,0.2-0.1,0.5-0.1,0.7c0,0,0,0.1,0.1,0.1c0.1,0,0.3,0.1,0.3,0c0.3-0.4,0.7-0.8,1-1.3
		c2-3.2,4-6.4,6-9.6c0.8-1.2,1.6-2.4,2.3-3.6c0.2-0.4,0.4-0.7,0.6-1.1c0.1-0.3,0.1-0.6-0.1-0.8c-0.2-0.2-0.4-0.4-0.6-0.6
		c-0.3-0.5-0.4-1-0.3-1.5c0.4-1.5,1-2.9,2.1-4.1c1.6-1.7,3.2-3.3,4.9-5c1.1-1.1,2.2-2.2,3.3-3.3c0.3-0.3,0.6-0.6,0.6-1.1
		c0-0.2-0.1-0.3-0.3-0.3c-0.5,0-0.9,0.3-1.3,0.6c-2.6,1.7-5,3.7-7.2,5.8c-1.1,1-2.1,2.1-3.1,3.2c-1.5,1.5-2.8,3.1-3.6,5.1
		c-0.3,0.8-0.9,1.4-1.7,1.8c-0.4,0.1-0.8,0-0.8-0.4c-0.1-0.8-0.2-1.7,0.1-2.5c0.3-1.3,0.7-2.6,1.6-3.7c0.7-0.9,1.4-2,2-3
		c1.1-1.8,2.4-3.4,4-4.8c2.9-2.5,6-4.7,9.1-7c0.9-0.7,1.8-1.4,2.7-2.1c0.4-0.4,0.2-1-0.3-1c-2.1-0.2-4.2-0.4-6.2,0
		c-5.9,1.3-11.1,4-15.7,7.9c-2.7,2.3-4.9,4.9-6.4,8c-0.2,0.5-0.4,1.4-1.1,1.3c-0.9-0.1-0.6-1.1-0.6-1.6c-0.1-2.8,0.8-5.3,2.2-7.6
		c0.8-1.4,1.8-2.6,2.9-3.9c1-1.2,1.9-2.6,2.8-3.9c0.3-0.5,1-1.1,0.4-1.7c-0.5-0.6-1.3-0.2-1.8,0.1c-1.3,0.5-2.7,1-4,1.6
		c-3.7,1.7-7,4.1-10,6.8c-2.3,2-4.5,4.1-6.6,6.3c-0.2,0.2-0.5,0.6-0.9,0.5c-0.3-0.1-0.4-0.4-0.3-1.1c0.3-1.6,0.9-3,1.7-4.3
		c0.7-1.3,1.5-2.5,2.3-3.6c0.5-0.7,1-1.5,1.4-2.3C360.5,182.6,360.4,182.6,360.4,182.4z M431.7,63.1
		C431.7,63.1,431.7,63.1,431.7,63.1c0.7,0,1.4,0,2.1,0c0.4,0,0.6-0.4,0.4-0.8c-0.1-0.1-0.1-0.2-0.2-0.3c-1.7-2.2-3.4-4.4-5.2-6.6
		c-1.1-1.3-2.3-2.4-3.7-3.4c-0.4-0.3-0.9-0.6-1.5-0.6c-0.4,0-0.7,0.4-0.5,0.7c0.2,0.3,0.5,0.7,0.7,1c1.9,2.2,3.5,4.6,4.1,7.6
		c0.1,0.5,0.3,0.9,0.5,1.3c0.2,0.6,0.7,1,1.4,1C430.5,63.1,431.1,63.1,431.7,63.1z M465.7,158.6c0.1-0.2,0.2-0.2,0.1-0.3
		c-0.3-2.5-0.6-4.9-1.6-7.3c-0.6-1.4-1.2-2.8-1.6-4.3c0-0.2-0.1-0.3-0.2-0.5c-0.1-0.1-0.2-0.1-0.3-0.1c-0.1,0-0.2,0.1-0.2,0.2
		c0,0.1,0,0.2,0,0.3c0.7,2.2,1.3,4.3,2,6.4c0.4,1,0.7,2,0.8,3.1C464.8,157,464.9,157.9,465.7,158.6z M397.4,195.5
		c-2.9,2.1-5.6,5.4-6.3,7.2C392.7,201.6,396.5,197.3,397.4,195.5z M438.9,63.7c0.2,0,0.5-0.2,0.4-0.4c-0.1-0.5-0.5-1-1-1.1
		c-0.1,0-0.2,0.1-0.3,0.2C437.8,63,438.2,63.7,438.9,63.7z M435.8,57.7c0,0-0.1-0.1-0.1-0.1c-0.1,0-0.2,0.1-0.1,0.2
		c0,0,0.1,0.1,0.1,0.1C435.8,57.9,435.8,57.8,435.8,57.7z M507.1,183.8c-0.1,0-0.1,0-0.1,0.1c0,0.2,0.1,0.2,0.2,0.1
		C507.1,184,507.1,183.9,507.1,183.8z"/>
	<path d="M655.3,102.5c-6.7,0-13.4-0.1-20-0.1c-2.6,0-5.1,0-7.7,0.1c-0.7,0-1.4,0.1-2.1,0.3c-2.5,0.5-3.9,2.1-4.5,4.5
		c-0.2,0.6-0.2,1.2-0.3,1.8c-0.2,0.9-0.6,1.2-1.5,1.2c-0.2,0-0.5,0-0.7-0.1c-0.5-0.1-0.8-0.4-0.9-1c0-0.3-0.1-0.6,0-0.9
		c0-7.4,0-14.8,0.1-22.2c0-0.3,0-0.6,0.1-0.9c0-0.2,0.1-0.4,0.2-0.5c0.4-0.5,1.1-0.5,1.6-0.5c0.6,0,1.1,0.2,1.3,0.8
		c0.1,0.4,0.2,0.8,0.3,1.2c0.3,1.3,0.9,2.6,1.6,3.8c1.1,1.7,2.6,2.7,4.7,2.9c0.8,0.1,1.5,0.1,2.3,0.1c3.3,0,6.7,0,10,0.1
		c12.9,0.3,25.8,0.2,38.6,0.3c1.7,0,3.3,0.1,5,0.1c5,0,10,0,15-0.1c2.3,0,4.5,0,6.8,0c3.4,0,6.2-1.4,8.6-3.8
		c1.1-1.1,1.9-2.3,2.4-3.7c0.1-0.5,0.3-0.9,0.8-1.1c0.7-0.2,1.4-0.3,2.1,0.1c0.3,0.1,0.5,0.4,0.5,0.7c0.1,0.5,0.1,1.1,0.1,1.6
		c-0.1,11.8-0.1,23.6-0.2,35.4c0,2.3-0.1,2.3-2.1,3.1c-7.6,2.8-15.2,5.6-22.9,8.3c-3.4,1.2-6.8,2.5-10.3,3.7c-0.5,0.2-1,0.4-1.5,0.6
		c-0.5,0.2-1.2,0.2-1.3,0.9c-0.1,0.7,0.7,0.7,1.1,0.9c0.3,0.1,0.6,0.2,0.8,0.3c5.2,2,10.4,4.1,15.7,6.1c6.2,2.4,12.3,4.8,18.5,7.2
		c0.3,0.1,0.6,0.2,0.8,0.4c0.6,0.3,0.9,0.8,0.9,1.4c0,0.5,0,1,0,1.4c0,9.9-0.1,19.8-0.1,29.7c0,0.1,0,0.2,0,0.4
		c0,0.6,0.1,1.3-0.5,1.6c-0.8,0.4-1.6,0.4-2.4,0c-0.2-0.1-0.3-0.3-0.5-0.5c-0.1-0.2-0.1-0.5-0.2-0.7c-1.1-3.7-3.7-5.9-7.3-6.9
		c-1.9-0.5-3.8-0.6-5.7-0.6c-10.2,0-20.4-0.1-30.6-0.1c-12.8-0.1-25.5-0.2-38.3-0.2c-1.4,0-2.9,0-4.3,0.1c-1.4,0.2-2.8,0.6-4.1,1.2
		c-2.3,1.2-3.9,2.9-4.7,5.4c-0.1,0.3-0.1,0.6-0.2,0.9c-0.3,0.8-0.6,1.1-1.4,1.1c-1.5,0.1-2-0.3-2-1.8c0.1-4.5,0.1-9.1,0.1-13.6
		c0.1-9.4,0.1-18.8,0.2-28.3c0-0.4,0-0.7,0-1.1c0.1-0.9,0.4-1.2,1.2-1.2c1.2-0.1,1.6,0.2,1.9,1.3c1.3,4.3,4.4,6.5,8.7,7.2
		c1.2,0.2,2.4,0.2,3.6,0.2c15.3,0.1,30.5,0.2,45.8,0.2c1.6,0,3.1,0,4.7,0c0.3,0,0.7-0.1,1-0.2c0,0,0.1-0.1,0.1-0.1
		c0-0.1,0-0.3-0.1-0.3c-0.5-0.2-1-0.5-1.5-0.7c-7.4-2.6-14.9-5.1-22.3-7.7c-5.2-1.8-10.4-3.6-15.5-5.4c-4.6-1.6-9.2-3.3-13.8-4.9
		c-0.2-0.1-0.3-0.1-0.5-0.2c-0.9-0.3-1.4-0.8-1.4-1.8c0-1.1,0-2.1,0-3.2c0-0.7,0.3-1.2,1-1.5c1.6-0.6,3.1-1.2,4.7-1.8
		c6.9-2.8,13.9-5.5,20.8-8.3c5.5-2.2,11.1-4.4,16.6-6.6c3.6-1.4,7.2-2.9,10.8-4.4c0.6-0.3,1.4-0.3,1.6-1.2c-0.5-0.5-1.2-0.4-1.9-0.4
		c-8.1-0.1-16.2-0.2-24.3-0.3C657.6,102.5,656.4,102.5,655.3,102.5C655.3,102.5,655.3,102.5,655.3,102.5z"/>
	<path d="M667.3,319.8c-13.8-0.1-27.6-0.2-41.3-0.3c-0.7,0-1.4,0-2.1,0c-1.2,0.1-2.2,0.7-2.7,1.8c-1.1,2.5-1.2,5-0.1,7.4
		c0.6,1.4,1.7,2.1,3.2,2.1c0.5,0,1.1,0,1.6,0c12,0.1,24.1,0.1,36.1,0.2c1.1,0,2.3,0,3.4-0.1c2.1-0.2,3.6-1.1,4.4-3.2
		c0.1-0.2,0.2-0.4,0.3-0.7c0.2-0.4,0.5-0.6,1-0.7c0.2,0,0.5,0,0.7,0c1.4,0,1.8,0.3,1.8,1.7c0,1.5,0,3.1,0,4.7
		c-0.1,9.8-0.1,19.7-0.2,29.5c0,0.5,0,1.1-0.1,1.6c-0.1,0.5-0.3,0.8-0.8,0.8c-0.4,0-0.7,0-1.1,0.1c-0.8,0.1-1.4-0.3-1.7-1
		c-0.1-0.3-0.2-0.7-0.4-1c-1.2-2.5-3.2-4-6-4.1c-5.5-0.1-11-0.1-16.5-0.1c-3.6,0-7.3-0.1-10.9-0.1c-1.5,0-2.9-0.3-4.3-0.9
		c-4.1-1.6-7.4-4.3-10.1-7.7c-3.2-3.9-5.3-8.3-6.6-13.2c-0.9-3.5-1.4-7-1.3-10.6c0.1-1.9,0.1-3.8,0-5.7c-0.1-3.5,0.7-6.8,1.9-10
		c2.3-6.3,6.2-11.6,11.2-16.2c5-4.5,10.7-7.8,16.9-10.2c5-2,10.2-3.2,15.6-3.8c3.1-0.3,6.2-0.5,9.3-0.4c3.9,0.1,7.7,0.3,11.6,1
		c8.1,1.4,15.7,4.1,22.6,8.5c7.2,4.7,12.7,10.8,16.1,18.7c0.4,0.9,0.8,1.7,1.3,2.6c0.6,0.9,0.8,1.8,0.9,2.9c0.1,2.4,0.2,4.9,0.2,7.3
		c0,3.6,0.1,7.3-0.2,10.9c-0.1,1.5-0.4,2.9-1.3,4.2c-0.5,0.7-0.8,1.5-1.2,2.2c-0.9,1.8-1.9,3.6-3.1,5.3c-0.2,0.3-0.4,0.6-0.5,0.9
		c-0.1,0.3,0.1,0.7,0.4,0.7c0.2,0.1,0.5,0.1,0.7,0.1c1.4,0,2.7,0.2,4.1-0.3c0.4-0.1,0.7,0.1,0.8,0.5c0.1,0.3,0.2,0.7,0.2,1.1
		c0,1.3,0,2.6,0,3.9c0,0.3-0.1,0.6-0.1,0.9c-0.1,0.4-0.4,0.6-0.8,0.6c-4.3-0.7-8.6-0.3-12.9-0.4c-8.1-0.1-16.2-0.1-24.3-0.1
		c-0.5,0-1.1,0-1.6,0c-1-0.1-1.3-0.3-1.3-1.3c0-1.3,0-2.5,0-3.8c0-0.9,0.4-1.1,1.3-1.2c1,0,2-0.1,3,0c3.2,0.2,6.3-0.2,9.4-1
		c4.1-1,8-2.3,11.7-4.4c2.2-1.3,4.2-2.9,5.8-4.9c2.5-3.1,3.3-6.7,2.6-10.6c-0.2-1-0.5-1.9-1.1-2.8c-0.4-0.7-1.1-1.1-1.9-1.1
		c-0.8,0-1.7,0-2.5,0C694.6,320,681,319.9,667.3,319.8C667.3,319.8,667.3,319.8,667.3,319.8z"/>
	<path d="M655.5,440.1c-9.4-0.1-18.7-0.2-28.1-0.3c-1.1,0-2.1,0-3.2,0.3c-1.6,0.4-2.7,1.2-3.4,2.6c-0.6,1.2-1.1,2.5-1.3,3.9
		c-0.1,0.4-0.1,0.7-0.2,1.1c-0.1,0.4-0.4,0.7-0.9,0.8c-0.4,0-0.8,0.1-1.2,0c-0.6-0.1-0.9-0.4-1-1c0-0.4,0-0.8,0-1.3
		c0-7.3,0-14.7,0.1-22c0-0.3,0-0.6,0-0.9c0.1-1.2,0.3-1.5,1.2-1.6c1.3-0.1,1.9,0.3,2.1,1.4c0.1,0.9,0.3,1.8,0.7,2.6
		c0.2,0.5,0.5,1.1,0.8,1.6c1.1,1.9,2.7,3,4.9,3.1c0.8,0,1.5,0.1,2.3,0.1c20.5,0.1,41,0.3,61.5,0.4c4.7,0,9.4,0,14.1,0.1
		c1.5,0,2.8-0.3,4.1-1.1c1.3-0.8,2.6-1.7,3.8-2.7c1.3-1,2.3-2.2,2.9-3.8c0.5-1.2,1.5-1.6,2.8-1.1c0.3,0.1,0.5,0.3,0.6,0.7
		c0.1,0.5,0.1,1.1,0.1,1.6c0,7-0.1,14.1-0.1,21.1c0,4.5,0,8.9,0,13.4c0,0.3,0,0.6,0,0.9c0.1,1.3-0.4,2-1.6,2.6
		c-9.1,4.2-18.2,8.4-27.2,12.7c-7,3.3-14,6.5-21.1,9.8c-0.6,0.3-1.5,0.4-1.7,1.3c0.6,0.5,1.4,0.3,2.1,0.3
		c12.3,0.1,24.6,0.1,36.8,0.2c1.1,0,2.1,0,3.2-0.1c0.5,0,1-0.1,1.4-0.2c2.5-0.6,4-2.3,4.5-4.8c0.1-0.3,0.1-0.6,0.1-0.9
		c0.1-0.5,0.2-1.1,0.7-1.3c0.7-0.3,1.4-0.2,2.1,0.1c0.3,0.1,0.5,0.4,0.5,0.7c0,0.4,0.1,0.8,0.1,1.2c0,7-0.1,14-0.1,20.9
		c0,0.2,0,0.5,0,0.7c-0.1,1.7-0.4,2-2.1,1.9c-0.9-0.1-1.1-0.3-1.3-1.2c-0.1-1-0.4-2-0.7-2.9c-1-2.9-3.4-4.6-6.5-4.7
		c-5.1,0-10.1-0.1-15.2-0.2c-14.3-0.1-28.6-0.1-42.9-0.2c-10.3-0.1-20.6-0.2-30.9-0.2c-0.2,0-0.4,0-0.5,0c-1.3-0.1-1.6-0.3-1.6-1.6
		c0-0.8,0-1.7,0-2.5c0-4.9,0.1-9.9,0.1-14.8c0-0.1,0-0.2,0-0.4c-0.2-1.4,0.4-2.3,1.8-2.9c6-2.8,12-5.7,17.9-8.5
		c10.1-4.8,20.1-9.6,30.2-14.4c6.2-3,12.4-5.9,18.5-8.9c0.6-0.3,1.4-0.4,1.7-1.1c-0.6-0.8-1.4-0.4-2.1-0.5
		C674.6,440.2,665.1,440.1,655.5,440.1C655.5,440.1,655.5,440.1,655.5,440.1z"/>
	<path d="M615.7,546.1c0-10.6,0.1-21.2,0.1-31.8c0-0.6,0-1.2,0.1-1.8c0-0.4,0.3-0.7,0.7-0.8c0.6-0.2,1.2-0.2,1.8,0
		c0.3,0.1,0.5,0.3,0.6,0.6c0.1,0.2,0.2,0.4,0.2,0.7c0.6,2.6,2.2,4.3,4.4,5.6c1.9,1.1,3.9,1.7,6.1,1.8c3.6,0,7.2,0.1,10.7,0.1
		c15.3,0.1,30.7,0.2,46,0.3c5.4,0,10.7,0.1,16.1,0.1c1.6,0,3.1-0.1,4.6-0.5c3.3-1,5.6-3,6.9-6.3c0-0.1,0.1-0.2,0.1-0.3
		c0.3-1.5,0.9-1.6,2.5-1.4c0.5,0.1,0.9,0.4,0.9,0.9c0.1,0.6,0.1,1.2,0.1,1.8c0,8.8-0.1,17.7-0.2,26.5c-0.1,12.2-0.1,24.3-0.1,36.5
		c0,0.6,0,1.2-0.1,1.8c-0.1,0.6-0.4,0.9-1.1,1c-0.4,0-0.7,0-1.1,0c-11.5-0.1-23-0.2-34.5-0.2c-2.2,0-2.3-0.1-2.3-2.4
		c0-2.1,0-2.2,2.1-2.5c3.6-0.5,7.2-1.3,10.6-2.5c5.1-1.8,9.8-4.3,13.6-8.3c2.8-2.9,4.8-6.2,5.7-10.2c0.3-1.3,0.4-2.6,0.4-3.9
		c0-0.7-0.4-1.1-1.1-1.2c-0.4,0-0.8,0-1.3,0c-10.6-0.1-21.2-0.1-31.8-0.2c-0.4,0-0.7,0-1.1,0c-1.1,0.1-1.5,0.4-1.4,1.6
		c0.1,1.8,0.8,3.5,1.8,5c1,1.5,2.4,2.7,4,3.5c2.3,1.2,4.7,2,7.3,2.4c1.8,0.3,3.5,0.6,5.3,0.7c1.3,0.1,1.5,0.4,1.5,1.7
		c0,0.1,0,0.2,0,0.4c0,1-0.4,1.3-1.3,1.4c-0.4,0-0.8,0-1.3,0c-15.1-0.1-30.3-0.2-45.4-0.3c-0.3,0-0.6,0-0.9,0
		c-0.2,0-0.4-0.1-0.5-0.2c-0.7-0.5-0.5-1.3-0.5-2c0-0.6,0.2-1.1,0.8-1.2c0.5-0.1,1.1-0.1,1.6-0.2c4.7-0.3,9.3-1.4,13.6-3.4
		c1.8-0.9,3.5-2,5-3.4c1.2-1.2,2.1-2.6,2.7-4.2c0.1-0.3,0.2-0.6,0.3-0.8c0.1-0.5-0.1-0.9-0.6-0.9c-0.6-0.1-1.2-0.1-1.8-0.1
		c-4.5,0-8.9-0.1-13.4-0.1c-8.4-0.1-16.8-0.1-25.2-0.2c-0.9,0-1.8,0-2.7,0.1c-1.2,0.1-1.8,0.7-2,1.9c-0.1,0.9,0,1.8,0.1,2.7
		c0.6,3.9,2.5,7.2,5.3,9.9c2.6,2.5,5.6,4.4,8.8,6c4.8,2.3,9.9,3.8,15.1,4.8c4.2,0.8,8.4,1.4,12.6,1.8c2.2,0.2,2.3,0.3,2.2,2.5
		c0,0.1,0,0.2,0,0.4c-0.1,1.6-0.3,1.8-1.9,1.8c-5.1,0-10.3,0-15.4-0.1c-10.3-0.1-20.5-0.2-30.8-0.2c-0.6,0-1.2,0-1.8,0
		c-1-0.1-1.3-0.4-1.4-1.5c0-0.5,0-1.1,0-1.6c0-10.5,0-21,0-31.5C615.7,546.1,615.7,546.1,615.7,546.1z"/>
	<path d="M718.8,236.4c0,6.7,0,13.5,0,20.2c0,0.4,0,0.8,0,1.3c-0.1,1.1-0.4,1.4-1.4,1.4c-1.2,0-1.6-0.2-1.9-1.4
		c-0.6-2.4-2.3-3.5-4.6-3.9c-1.8-0.2-3.6-0.2-5.3,0.1c-3.4,0.7-6.8,1.4-10.1,2.2c-3.4,0.8-6.9,1.5-10.3,2.3c-4.7,1-9.3,2.1-14,3.1
		c-4.2,0.9-8.4,1.8-12.6,2.7c-4.6,1-9.2,2-13.8,3c-4.6,1-9.2,2-13.8,3c-1.2,0.3-2.4,0.5-3.7,0.8c-3.5,0.8-5.7,3-6.9,6.4
		c-0.1,0.3-0.1,0.6-0.2,0.9c-0.1,0.4-0.1,1-0.7,1.2c-0.7,0.3-1.4,0.3-2.1,0c-0.3-0.1-0.5-0.4-0.5-0.7c-0.1-0.4-0.1-0.8-0.1-1.2
		c0-15.5,0.1-31,0.1-46.5c0-0.4,0-0.7,0-1.1c0.1-1,0.4-1.2,1.4-1.2c0.3,0,0.6,0,0.9,0c0.5,0.1,0.9,0.4,1,0.9
		c0.2,0.8,0.4,1.6,0.7,2.4c0.7,1.7,1.8,2.9,3.4,3.7c1.8,0.9,3.7,1.3,5.7,0.9c3.3-0.6,6.6-1.3,9.8-1.9c1.1-0.2,2.2-0.4,3.3-0.7
		c2-0.5,2-0.5,2-2.5c0-2.1,0-4.2,0-6.3c0-3,0-6,0-8.9c0-0.4,0-0.7,0-1.1c0-0.8-0.4-1.4-1.2-1.6c-1.3-0.4-2.6-0.7-4-1
		c-2.3-0.6-4.6-1.2-6.9-1.7c-1.2-0.3-2.4-0.5-3.7-0.7c-1.8-0.3-3.6,0.1-5.2,0.9c-1.6,0.8-2.8,2.1-3.4,3.8c-0.3,0.8-0.5,1.6-0.7,2.4
		c-0.3,0.8-0.5,1.1-1.4,1.1c-0.4,0-0.7,0-1.1-0.1c-0.4-0.1-0.8-0.4-0.8-0.8c-0.1-0.4-0.1-0.8-0.1-1.2c0-8.2,0.1-16.5,0.1-24.7
		c0-0.2,0-0.4,0-0.5c0.1-1.4,0.3-1.8,1.4-1.8c1.3-0.1,1.9,0.4,2,1.5c0,0.5,0.1,1,0.3,1.4c0.7,2.1,1.9,3.8,3.7,5.1
		c1.4,1,3,1.7,4.7,2.2c3.5,1.1,7,2,10.5,2.9c7.8,2,15.7,4,23.5,6.1c3.2,0.8,6.4,1.6,9.5,2.4c3.9,1,7.7,2,11.6,3c3.9,1,7.8,2,11.8,3
		c3.4,0.9,6.8,1.7,10.2,2.6c1.4,0.4,2.8,0.6,4.2,0.5c2.5,0,3.8-1,4.7-3.4c0.3-0.8,0.4-1.6,0.5-2.4c0.1-0.8,0.4-1,1.2-1
		c1.6-0.1,2.1,0.2,2.1,1.8c0,1.8,0,3.6,0,5.4c0,5.2,0,10.5,0,15.7C718.9,236.4,718.9,236.4,718.8,236.4z M651.6,224.4
		C651.6,224.4,651.6,224.4,651.6,224.4c0,2,0,3.9,0,5.9c0,0.5,0,1,0.1,1.4c0.1,0.6,0.5,0.9,1.1,0.9c0.3,0,0.6-0.1,0.9-0.1
		c3.4-0.7,6.9-1.4,10.3-2c7.5-1.5,15.1-3,22.6-4.5c0.6-0.1,1.1-0.3,1.7-0.5c0.2-0.1,0.3-0.2,0.3-0.4c0-0.2-0.2-0.3-0.4-0.3
		c-0.2-0.1-0.3-0.1-0.5-0.1c-3.7-0.9-7.4-1.8-11.1-2.7c-7.3-1.8-14.7-3.6-22-5.3c-0.6-0.2-1.3-0.3-1.9-0.3c-0.5-0.1-0.8,0.2-0.9,0.7
		c-0.1,0.5-0.1,0.9-0.1,1.4C651.6,220.3,651.6,222.4,651.6,224.4z"/>
	<path d="M666.8,406.2c-11.9-0.1-23.7-0.1-35.6-0.2c-2.2,0-4.3,0.3-6.3,1.2c-2.7,1.2-4.6,3.1-5.4,6.1c-0.1,0.5-0.2,1-0.7,1.2
		c-0.7,0.3-1.4,0.3-2.1,0c-0.3-0.1-0.5-0.4-0.5-0.7c0-0.4-0.1-0.8-0.1-1.2c0-12.9,0.1-25.8,0.1-38.6c0-1.3,0-2.6,0-3.9
		c0-1.2,0.4-1.4,1.5-1.5c0.1,0,0.1,0,0.2,0c1,0,1.4,0.3,1.6,1.3c0.4,2,1.5,3.5,3.1,4.7c1.4,1.1,2.9,1.8,4.6,2.3
		c1.9,0.5,3.8,0.6,5.7,0.6c8.6,0,17.2,0.1,25.8,0.1c14,0.1,28,0.2,42,0.3c2.1,0,4.2,0,6.2-0.5c1.8-0.4,3.4-1.2,4.8-2.2
		c1.5-1.1,2.6-2.7,3-4.5c0.2-1.4,0.9-1.5,2-1.4c0.2,0,0.4,0,0.5,0.1c0.4,0.1,0.8,0.4,0.8,0.8c0,0.5,0,1,0,1.4
		c-0.1,13.5-0.1,27.1-0.2,40.6c0,0.7,0,1.3,0,2c0,0.3-0.1,0.6-0.3,0.8c-0.5,0.6-1.2,0.4-1.8,0.4c-0.5,0-0.9-0.2-1.1-0.8
		c-0.1-0.3-0.2-0.7-0.3-1c-1.1-3.4-3.6-5.4-6.9-6.4c-1.6-0.5-3.3-0.6-4.9-0.6C690.8,406.4,678.8,406.3,666.8,406.2
		C666.8,406.3,666.8,406.2,666.8,406.2z"/>
	<path d="M719.6,54.7c0,6.8,0,13.6,0,20.4c0,0.5,0,1,0,1.4c-0.1,0.9-0.4,1.2-1.4,1.3c-0.4,0-0.7,0-1.1-0.1c-0.4-0.1-0.8-0.3-0.9-0.8
		c0-0.2-0.1-0.4-0.1-0.5c-1-3.7-3.5-6-7.2-7c-1.4-0.4-2.9-0.6-4.4-0.6c-11.1-0.1-22.3-0.2-33.4-0.2c-12.5,0.1-25-0.1-37.6-0.1
		c-1.4,0-2.9,0-4.3,0.2c-1.3,0.2-2.5,0.6-3.7,1.2c-2.3,1.1-3.9,2.8-4.5,5.4c-0.1,0.2-0.1,0.5-0.2,0.7c-0.3,0.8-0.7,1.1-1.6,1.1
		c-1.1,0-1.5-0.4-1.6-1.5c0-0.7,0-1.3,0-2c0-13.2,0.1-26.4,0.1-39.5c0-0.8,0-1.6,0.1-2.3c0.1-0.6,0.4-0.8,1-0.9c0.1,0,0.2,0,0.4,0
		c1.2,0,1.5,0.2,1.7,1.3c0.3,1.4,0.9,2.6,1.9,3.6c1.4,1.6,3.3,2.6,5.3,3.2c1.8,0.6,3.7,0.8,5.6,0.8c5.1,0,10.3,0.1,15.4,0.1
		c16,0,32.1,0.1,48.1,0.1c2.7,0,5.5,0.2,8.2,0.1c2.5-0.1,4.8-0.7,7-2c2.1-1.3,3.5-3,4.1-5.4c0-0.2,0.1-0.3,0.1-0.5
		c0.1-0.4,0.4-0.7,0.9-0.8c0.2,0,0.5,0,0.7,0c1.1,0,1.4,0.3,1.5,1.5c0,0.4,0,0.8,0,1.3C719.7,41.1,719.7,47.9,719.6,54.7
		C719.7,54.7,719.6,54.7,719.6,54.7z"/>
	<path d="M497.4,53.9c-2.8-0.2-5.8,0.3-8.8,1c-4.6,1-8.6,3-12.2,6c-0.3,0.2-0.5,0.5-0.8,0.7c-0.3,0.2-0.7,0.7-1.1,0.3
		c-0.4-0.4,0.1-0.8,0.3-1.1c1.2-2,2.8-3.5,4.8-4.7c0.8-0.5,1.5-0.9,2.2-1.5c0.3-0.2,0.5-0.5,0.7-0.8c0.2-0.2,0-0.6-0.3-0.7
		c-0.8-0.1-1.5,0.1-2.2,0.6c-0.7,0.6-1.5,1.2-2.2,1.8c-0.3,0.2-0.7,0.6-1.1,0.3c-0.5-0.3-0.4-0.8-0.4-1.3c0.1-0.6,0.5-1.1,0.9-1.5
		c0.8-0.8,1.7-1.7,2.6-2.5c1.1-1,2.4-1.9,3.4-3.2c0.3-0.4,0.6-0.8,0.8-1.2c0.2-0.3-0.1-0.7-0.5-0.8c-0.1,0-0.2,0-0.4,0
		c-1.5,0.1-3,0.2-4.4,0.4c-2,0.2-3.9,0.6-5.6,1.7c-0.5,0.3-1.1,0.5-1.6,0.7c-0.5,0.2-1.1,0.5-1.5,0.1c-0.5-0.5,0-1,0.2-1.5
		c0.1-0.3,0.4-0.6,0.5-0.9c0.1-0.2,0.3-0.4,0.3-0.6c0-0.2,0-0.4,0-0.5c-0.1-0.2-0.4-0.2-0.6-0.2c-0.3,0.1-0.5,0.2-0.8,0.4
		c-0.3,0.3-0.6,0.6-0.9,0.8c-1.4,1.2-2.8,2.4-4.2,3.6c-0.8,0.7-1.7,1.1-2.6,1.5c-0.4,0.2-0.9,0.3-1.4,0.3c-0.6,0.1-0.9-0.4-0.7-0.9
		c0.2-0.5,0.5-1,0.8-1.4c1-1.7,2.4-3.1,3.6-4.6c0.3-0.4,0.6-0.7,0.9-1.1c0.1-0.1,0-0.2,0-0.3c-0.1-0.1-0.2-0.2-0.3-0.1
		c-0.3,0.1-0.6,0.1-0.9,0.2c-0.7,0.3-1.4,0.6-2.2,0.7c-0.6,0.1-1.1,0.4-1.6,0.7c-0.7,0.5-1.3,1-2,1.5c-0.7,0.5-1.4,0.7-2.2,0.4
		c-0.3-0.1-0.7-0.2-1-0.3c-0.7-0.2-1.3-0.1-1.9,0.2c-0.3,0.1-0.7,0.3-1-0.1c-0.2-0.4,0.2-0.7,0.4-0.9c0.5-0.5,1.1-1.1,1.7-1.6
		c2.4-2,5-3.6,7.8-5c4-2,8.2-3.6,12.5-4.8c5.2-1.4,10.4-1.9,15.8-1.6c1.8,0.1,3.5,0.6,5.3,0.9c5.8,1.2,11.5,2.7,17.1,4.7
		c7.4,2.7,14.6,6,21.1,10.4c5.4,3.7,9.8,8.3,13.2,13.9c0.5,0.9,1.1,1.5,2,2c3.2,1.7,6.4,3.4,9.7,4.9c4.5,2.1,8.2,5.1,11.2,9
		c1,1.4,1.6,2.9,2.1,4.5c0.1,0.2,0.1,0.4,0.1,0.5c0,0.3-0.3,0.6-0.6,0.6c-0.4,0-0.8-0.1-1.2-0.2c-2.9-0.8-5.7-1.6-8.6-2.4
		c-0.2,0-0.3-0.1-0.5-0.1c-1.7-0.1-3.3-0.5-4.8-1.3c-0.3-0.2-0.7-0.2-1-0.2c-1,0.1-1.9-0.2-2.7-0.7c-0.6-0.3-1.2-0.5-1.8-0.7
		c-5.1-1.4-10.1-2.7-15.2-4c-3.1-0.8-6.1-1.5-9.2-2.2c-0.8-0.2-1.6-0.4-2.3,0.5c-0.3,0.4-0.7,0.5-1.1,0.4c-1.7-0.2-3.3-0.1-5-0.5
		c-2.6-0.7-5.2-0.5-7.8,0.3c-0.2,0.1-0.4,0.2-0.7,0.2c-0.2,0-0.4,0-0.4-0.2c0-0.1,0.1-0.3,0.2-0.5c0.1-0.1,0.3-0.2,0.4-0.3
		c0.3-0.1,0.5-0.2,0.8-0.4c0.3-0.2,0.7-0.3,0.6-0.8c-0.1-0.4-0.5-0.6-0.8-0.6c-1-0.1-2-0.1-3-0.2c-0.9,0-1.8,0-2.7-0.1
		c-0.2,0-0.5-0.1-0.5-0.4c0-0.3,0.2-0.4,0.4-0.5c0.6-0.2,1.1-0.4,1.7-0.5c1.4-0.3,2.8-0.6,4.2-0.7c0.3,0,0.6-0.1,0.8-0.2
		c0.2-0.1,0.2-0.3,0.1-0.5c-0.2-0.3-0.6-0.5-0.9-0.5c-0.8-0.1-1.5-0.2-2.3-0.4c-0.9-0.2-1.9-0.3-2.8-0.5c-0.3-0.1-0.4-0.5-0.3-0.7
		c0.5-0.7,1.1-1.2,2-1.3c0.4,0,0.8-0.1,1.2-0.2c0.3-0.1,0.5-0.3,0.6-0.6c0-0.3-0.1-0.6-0.4-0.8c-1-0.6-2.1-1.1-3.4-0.8
		c-1.3,0.2-2.6,0.5-3.9,0.6c-0.9,0.1-1.9,0.2-2.8,0.3c-0.2,0-0.4,0-0.5,0c-0.4,0-0.8,0-0.9-0.4c-0.1-0.4,0.2-0.7,0.5-0.9
		c0.3-0.2,0.6-0.4,0.9-0.6c0.4-0.3,1.2-0.4,1-1.1c-0.2-0.5-0.9-0.4-1.5-0.4c-1.6,0-3.2,0.3-4.7,0.9c-1.6,0.6-3.3,1-5,1.5
		c-0.2,0-0.4,0-0.5,0c-0.3,0-0.5-0.3-0.4-0.6c0.1-0.2,0.1-0.3,0.2-0.5c1.4-1.9,3-3.4,5.4-3.7c4-0.6,8.1-0.8,12.1,0
		c1.7,0.3,3.4,0.4,5.2,0.3c0.2,0,0.3-0.1,0.3-0.3c0-0.1-0.1-0.2-0.2-0.3c-0.5-0.4-1.2-0.6-1.8-0.7C504.8,54.4,501.2,53.8,497.4,53.9
		z"/>
	<path d="M521.4,305.5c4.2-0.1,8.3,0.5,12.3,1.1c3.4,0.6,6.5,2,9.3,3.9c5.5,3.6,9.7,8.4,12.4,14.5c1.2,2.8,2.1,5.7,2.5,8.7
		c0.3,1.6,0.5,3.3,0.6,5c0.1,2.3-0.1,2.5-2.3,2.5c-0.1,0-0.1,0-0.2,0c-2.3-0.3-3.9,0.6-5.3,2.3c-0.7,0.8-1.4,1.7-2,2.5
		c-0.7,0.9-1.5,1.7-2.4,2.4c-0.9,0.7-1.9,1-3,0.9c-0.9-0.1-1.2-0.4-1.2-1.2c0-0.5,0-1,0-1.4c-0.1-1.2-0.6-1.6-1.8-1.4
		c-0.9,0.1-1.8,0.3-2.6,0.6c-0.7,0.3-1.5,0.5-2.2,0.7c-0.6,0.2-1.3,0.3-1.9,0.4c-0.2,0-0.5-0.1-0.6-0.3c-0.1-0.2,0-0.5,0.1-0.6
		c0.3-0.4,0.8-0.7,1.3-0.9c0.7-0.3,1.4-0.6,2.1-0.9c0.8-0.3,1.5-0.7,2.3-1.1c0.7-0.4,0.7-1,0.1-1.4c0,0-0.1-0.1-0.1-0.1
		c-1.7-1.1-2.5-2.7-2.8-4.6c-0.2-1.5-0.8-2.9-1.7-4.1c-0.3-0.4-0.7-0.8-1.1-1.1c-0.5-0.3-1-0.2-1.1,0.3c-0.1,0.2-0.1,0.5-0.1,0.7
		c-0.1,1.4-0.8,2.5-1.7,3.4c-1.7,1.8-3.5,3.4-6,4.1c-1.4,0.4-2.8,0.8-4.2,1c-4.7,0.6-8.2-1.4-10.8-5.2c-0.6-0.9-1-1.9-1-3
		c0-0.5-0.1-1-0.3-1.4c-0.4-1.1-1.6-1.6-2.6-1c-1,0.6-1.9,1.4-2.8,2.2c-0.4,0.4-0.6,0.9-0.6,1.4c0,0.8,0.1,1.7,0.2,2.5
		c0.2,0.8-0.1,1.2-0.9,1.5c-2,0.5-3.9,1.1-6,1c-1.5,0-3.1-0.1-4.7-0.1c-0.5,0-1.1,0-1.6,0c-0.6,0.1-1,0.4-1,1c0,0.4,0,0.8,0,1.3
		c0,1.3,0,2.5,0,3.8c0,1-0.1,2-0.4,3c-0.6,1.5-0.3,2.9,0.5,4.3c0.8,1.4,1.8,2.6,3,3.8c0.4,0.4,1,0.7,1,1.4c-0.7,0.5-1.2-0.1-1.7-0.4
		c-1.9-1-3.6-2.4-5.2-3.8c-1.6-1.3-2.5-3-2.9-5c-1.2-5.3-1.2-10.5,0.1-15.8c0.9-3.9,2.6-7.6,4.7-11c2.3-3.8,5.1-7.2,8.7-9.8
		c2.9-2,6-3.5,9.3-4.5C510.3,306,515.8,305.4,521.4,305.5z M528.9,313.7c-6.6-0.2-12.8,1.4-18.8,3.6c-0.2,0.1-0.4,0.2-0.6,0.3
		c-0.2,0.1-0.5,0.3-0.3,0.5c0,0.1,0.3,0.2,0.4,0.2c0.2,0,0.4,0,0.5,0c2,0,3.9,0,5.9,0c1.1,0,2.1,0.1,3.2,0.4
		c0.4,0.1,0.7,0.3,0.7,0.7c0,0.4-0.2,0.6-0.5,0.9c-0.5,0.3-1,0.3-1.5,0.4c-2.1,0.2-4.2,0.3-6.2,0.5c-3.8,0.2-7.4,1.4-10.7,3.3
		c-1.9,1.1-3.5,2.5-4.7,4.3c-0.4,0.6-0.4,1-0.2,1.1c0.4,0.2,0.7-0.1,1-0.3c1.5-1,3-1.9,4.7-2.6c3.5-1.4,7.2-2,11-2.3
		c4.9-0.5,9.9-0.5,14.8-0.1c3.2,0.3,6.4,0.8,9.4,1.9c1.3,0.5,2.7,1,4,1.5c0.4,0.1,0.8,0.4,1.1-0.1c0.2-0.4-0.1-0.8-0.4-1.1
		c-0.1-0.1-0.2-0.3-0.4-0.4c-1.1-1.3-2.5-2.2-4.1-2.7c-1.4-0.5-2.6-1.2-3.6-2.2c-0.2-0.2-0.3-0.4-0.2-0.6c0.1-0.2,0.3-0.4,0.6-0.4
		c1-0.1,2,0.1,3,0.5c1.3,0.5,2.6,1.3,3.9,1.7c2.7,0.8,5.2,2.1,7.6,3.6c0.3,0.2,0.6,0.3,1,0.4c0.3,0.1,0.6-0.2,0.5-0.5
		c0-0.2-0.1-0.5-0.2-0.7c-1.1-2.6-2.6-4.9-4.8-6.6c-2.1-1.7-4.4-3-6.9-4.1c-1-0.4-2-0.8-3.1-0.9
		C532.9,313.8,530.9,313.6,528.9,313.7z M521,338.3c1.7,0,3.1-0.6,4.5-1.6c0.5-0.4,0.9-0.8,0.9-1.5c0-0.4,0-0.7-0.4-0.9
		c-0.3-0.1-0.6,0.1-0.8,0.3c0,0-0.1,0.1-0.1,0.1c-1.2,1.2-2.7,1.9-4.4,2.2c-0.3,0-0.6,0.1-0.8,0.3c-0.2,0.1-0.4,0.3-0.3,0.6
		c0,0.3,0.2,0.4,0.5,0.4C520.3,338.2,520.7,338.2,521,338.3z"/>
	<path d="M358.4,72.7c0.3,0.4,0.8,0.2,1.2,0.2c0.5,0,1,0,1.4,0.1c0.4,0,0.6,0.5,0.3,0.8c-0.4,0.6-1,1.2-1.6,1.6
		c-1,0.7-2.1,1.4-3.3,1.8c-2.1,0.8-4.1,1.6-6.1,2.6c-0.9,0.5-1.8,1-2.5,1.8c-0.1,0.1-0.1,0.3,0,0.5c0.1,0.1,0.2,0.1,0.3,0.1
		c0.5-0.1,0.9-0.2,1.4-0.4c2.2-0.7,4.4-1.5,6.8-1.7c1.1-0.1,2.1-0.1,3.2,0.1c0.8,0.1,1.5,0.5,2,1c0.3,0.2,0.5,0.5,0.5,0.9
		c0,0.3-0.1,0.6-0.4,0.8c-0.2,0.1-0.3,0.2-0.5,0.2c-2.8,0.5-5.2,2-7.5,3.6c-3,2.2-6.1,4.4-9.1,6.7c-0.3,0.2-0.7,0.5-0.9,0.8
		c-0.1,0.1-0.2,0.3-0.2,0.5c0.1,0.3,0.3,0.3,0.6,0.3c1.7-0.2,3.3-0.5,5-0.7c0.2,0,0.5-0.1,0.7-0.1c0.3,0,0.4,0.2,0.5,0.5
		c0,0.2,0,0.5-0.1,0.7c-0.2,1.5-0.1,1.6,1.3,2.3c0.2,0.1,0.4,0.2,0.7,0.3c0.4,0.2,0.5,0.5,0.5,0.9c-0.1,0.4-0.3,0.7-0.7,0.8
		c-0.3,0.1-0.6,0.1-0.9,0.1c-0.5,0-1,0-1.4,0c-1.1-0.1-1.8,0.2-2.1,1.4c-0.2,0.9-1.1,1.4-2,1.7c-1.4,0.4-2.8,0.9-4.2,1.4
		c-0.2,0.1-0.3,0.1-0.4,0.4c0.4,0.2,0.9,0.1,1.3,0.1c1.1-0.1,2.3,0.1,3.4,0.2c0.8,0.1,0.9,0.6,0.4,1.3c0,0-0.1,0.1-0.1,0.1
		c-2.1,2.5-4.1,5.1-6.8,7.1c-0.4,0.3-0.8,0.7-1.2,1.1c-0.1,0.1-0.1,0.4-0.1,0.5c0.1,0.1,0.3,0.2,0.5,0.1c0.6-0.2,1.1-0.4,1.7-0.6
		c1-0.5,1.9-1,2.9-1.4c1.1-0.5,2.1-0.3,2.8,0.6c0.3,0.3,0.3,0.7,0,1c-0.2,0.2-0.4,0.5-0.6,0.7c-1.4,1.5-2.9,2.8-4.6,3.9
		c-1.3,0.8-2.6,1.7-3.9,2.5c-0.9,0.6-1.8,1.4-2.5,2.3c-0.5,0.6-0.3,1.2,0.3,1.5c0.4,0.2,0.9,0.3,1.3,0.5c0.5,0.2,0.7,0.7,0.5,1.2
		c-0.1,0.4-0.3,0.8-0.5,1.1c-0.7,1.2-1.5,2.3-2.4,3.3c-4.2,4.7-9,8.7-14.8,11.4c-3.9,1.9-7.5,4.2-10.6,7.2c-0.5,0.5-1,1.1-1.6,1.4
		c-0.4,0.2-0.7,0-0.8-0.4c-0.1-1.3,0-2.5,0.3-3.7c0.7-2.1,1.8-4,3.2-5.7c2.8-3.4,6.2-6.1,10-8.3c0.4-0.2,0.7-0.4,1.1-0.6
		c0.2-0.1,0.3-0.3,0.2-0.6c-0.1-0.3-0.4-0.4-0.7-0.4c-0.3,0.1-0.7,0.3-1,0.4c-0.3,0.1-0.6,0.3-1,0.4c-0.3,0.1-0.5-0.1-0.6-0.3
		c-0.3-0.8,0-1.5,0.8-1.9c0.4-0.2,0.9-0.2,1.3-0.6c0.2-0.2,0.3-0.4,0.2-0.6c-0.1-0.2-0.3-0.3-0.6-0.3c-0.4,0-0.7,0.2-1,0.4
		c-0.3,0.2-0.6,0.4-0.9,0.6c-0.2,0.1-0.5-0.1-0.5-0.3c0-0.2,0-0.4,0-0.5c0.3-1.9,1-3.7,2.3-5.1c0.5-0.5,0.9-1,1.3-1.5
		c0.4-0.5,0.5-0.9,0.2-1.6c-0.6-1.4-0.5-2.9,0.4-4.3c1.7-2.6,3.7-4.8,6.5-6.2c1.7-0.8,2.7-1.9,3.1-3.8c0.4-2,1.5-3.6,2.9-5.1
		c1.1-1.1,2.2-2.2,3.3-3.3c0.6-0.6,1-1.2,0.9-2c-0.2-2,0.5-3.9,1-5.8c0.1-0.5,0.3-0.9,0.3-1.4c0-0.3,0.1-0.8-0.4-0.9
		c-0.4-0.1-0.5,0.2-0.7,0.5c-0.7,1.1-1.1,2.4-1.5,3.6c-0.1,0.3-0.2,0.7-0.3,1c-0.2,0.5-0.4,1-0.9,1.3c-0.3,0.3-0.7,0.5-1.1,0.4
		c-0.5-0.2-0.5-0.6-0.5-1.1c0-0.8-0.1-1.6,0.1-2.3c0.6-2.8,1.2-5.6,2.6-8.1c3.4-6.2,8.2-10.7,15-13.1c2.9-1,5.8-1.2,8.8-1.1
		c0.4,0,0.8,0.1,1.2,0.3c0.3,0.3,0.7,0.5,0.6,1c-0.1,0.4-0.4,0.6-0.7,0.7c-0.6,0.2-1.1,0.4-1.7,0.7
		C358.9,72.2,358.5,72.3,358.4,72.7z M356.9,73.4c-1-0.4-2-0.3-2.9,0c-0.2,0.1-0.3,0.2-0.2,0.4c0.1,0.2,0.2,0.3,0.4,0.3
		C355,73.9,355.9,73.6,356.9,73.4z M324.5,117.6c1-0.7,1.7-1.2,2.3-1.9c0.1-0.1,0.1-0.3,0.1-0.5c-0.1-0.2-0.3-0.2-0.5-0.1
		C325.5,115.5,325,116.3,324.5,117.6z"/>
	<path d="M376,292.7c0-0.5-0.4-0.6-0.7-0.9c-0.5-0.4-0.8-0.8-1.1-1.4c-0.3-0.8,0-1.3,0.9-1.2c0.6,0.1,1.3,0.2,1.9,0.4
		c1.1,0.2,2.1,0.4,3.2,0.5c0.8,0.1,1.5,0.2,2.3,0.1c1.6-0.1,3.2,0,4.8,0.5c0.6,0.2,1,0.1,1.3-0.5c0.4-0.8,1-0.9,1.8-0.8
		c1.7,0.2,3.3,0.6,4.8,1.4c2.3,1.1,4.5,2.4,6.7,3.8c0.4,0.3,0.9,0.6,1.4,0.9c0.1,0.1,0.4,0.1,0.5,0c0.2-0.1,0.2-0.3,0.1-0.5
		c-0.2-0.4-0.4-0.7-0.6-1.1c-0.1-0.3-0.3-0.5-0.4-0.8c-0.2-0.6,0.1-1.1,0.7-1.1c1.2,0,2.3,0.3,3.2,0.9c1.2,0.9,2.4,1.8,3.6,2.7
		c3.2,2.5,6.3,5.1,9.4,7.7c0.2,0.2,0.5,0.4,0.7,0.6c0.7,0.5,1.1,0.6,1.2,0.3c0.2-0.5-0.3-0.7-0.4-1.1c-0.1-0.1-0.1-0.2-0.2-0.3
		c-0.1-0.3,0-0.7,0.3-0.7c1.3-0.3,2.5-0.1,3.4,1c0.9,1.1,1.5,2.3,1.7,3.7c0.6,3.4,0.2,6.7-0.7,9.9c-0.3,1.1-0.9,2.1-1.4,3.1
		c-0.2,0.5-0.7,1-0.2,1.4c0.4,0.4,0.9,0,1.3-0.1c0.8-0.3,1.5-0.6,2.3-0.9c0.4-0.1,0.7,0.3,0.6,0.6c-0.1,0.3-0.3,0.7-0.4,1
		c-0.6,1.2-1.1,2.4-1.7,3.5c-0.8,1.6-1,3.3-0.8,5.1c0.2,2.3,0.7,4.5,1.2,6.7c0.7,3.6,1.9,7.1,3.1,10.6c0.7,2.1,0.7,2.1-1.3,3.1
		c-0.6,0.3-1.3,0.6-1.9,0.9c-0.3,0.1-0.8-0.1-0.8-0.5c-0.1-0.4-0.1-0.8-0.1-1.2c0-2.9-0.2-5.8-0.5-8.7c-0.6-5.5-1.8-10.9-4-16.1
		c-1.2-2.8-2.6-5.5-4.6-7.8c-2.4-2.7-4.8-5.5-7.7-7.7c-5.6-4.4-11.9-7.4-18.9-8.9c-4.7-1-9.5-1.2-14.2-0.6c-5.9,0.7-11.5,2.6-16.5,6
		c-1.9,1.3-1.9,1.3-3.4-0.3c-0.9-0.9-1.8-1.8-2.7-2.7c-0.5-0.5-0.9-0.5-1.4,0c-0.8,1.1-1.9,1.3-3.2,1.4c-0.8,0.1-1.7,0.1-2.5,0.1
		c-0.5,0-1-0.1-1.4-0.2c-1.7-0.4-2.5-1.6-2.1-3.3c0.2-0.7,0.5-1.3,0.9-1.9c0.9-1.4,2.1-2.6,3.4-3.6c2.5-1.9,5.2-3.4,8-4.6
		c0.3-0.1,0.6-0.2,0.8-0.3c0.8-0.3,1.6-0.3,2.4,0.1c1.3,0.7,2.6,1.4,3.9,2.2c1.5,0.9,2.1,0.6,2.3-1.2c0-0.5,0-1,0.1-1.4
		c0.1-0.6,0.4-0.9,1-0.8c0.3,0,0.6,0.1,0.9,0.2c3.1,1,6.2,1.8,9.2,3.1C375.5,292.8,375.7,292.9,376,292.7z"/>
	<path d="M384.6,315.2c-1,0-1.9,0-2.9,0c-1,0-1.3-0.2-1.4-1.2c-0.1-1-0.6-1.3-1.5-1.3c-1.2,0-1.4-1.2-0.9-1.9
		c0.3-0.4,0.6-0.7,0.9-1.1c0.2-0.2,0.3-0.5,0.4-0.8c0.1-0.3-0.1-0.8-0.5-0.8c-0.4,0-0.7,0-1.1,0c-6.7,0.4-13.1,2-18.9,5.4
		c-0.5,0.3-1,0.6-1.6,0.9c-0.2,0.1-0.5,0.2-0.6-0.1c-0.1-0.2,0-0.5,0.1-0.7c1.2-1.6,2.6-2.8,4.2-3.9c3.2-2.3,6.7-3.8,10.5-4.8
		c4.7-1.2,9.5-1.7,14.4-1.4c5.6,0.3,10.9,2,15.8,4.8c4.1,2.3,7.8,5.3,10.9,8.9c2.4,2.9,3.9,6.2,4.8,9.9c0.2,0.8,0.4,1.6,0.5,2.4
		c0.1,0.3,0.2,0.7-0.1,1c-0.4,0.3-0.8,0-1.1-0.2c-0.4-0.2-0.8-0.5-1.2-0.8c-1.5-1.1-3-2.1-4.6-3c-1.5-0.9-3.1-1.8-4.6-2.7
		c-0.3-0.2-0.5-0.3-0.8-0.5c-0.2-0.1-0.5-0.2-0.6,0.1c-0.1,0.1-0.1,0.4,0,0.5c0.2,0.4,0.5,0.8,0.8,1.2c0.1,0.1,0.1,0.4,0,0.5
		c-0.1,0.1-0.3,0.2-0.5,0.2c-1.2-0.3-2.4-0.7-3.5-1.3c-2.2-1.2-4.5-2.3-6.9-2.9c-3.1-0.7-6.1-1.6-9.3-1.9c-0.4,0-0.8-0.1-1.2-0.2
		c-0.4-0.1-0.7-0.3-0.7-0.7c0-0.4,0.3-0.7,0.8-0.8c0.3-0.1,0.6-0.1,0.9-0.2c2.3-0.4,4.6-0.5,6.9-0.2c0.4,0.1,0.9,0.3,1.3-0.2
		c0.2-0.3-0.1-0.6-1-1.1c-0.6-0.3-1.2-0.5-1.9-0.6C388.5,315.4,386.6,315.2,384.6,315.2z"/>
	<path d="M411.9,336.2c-1.3,0-2.4-0.1-3.5-0.5c-1.5-0.5-3.1-0.3-4.6,0c-0.7,0.2-1.4,0.4-2.1,0.6c-0.1,0-0.4,0-0.5-0.1
		c-0.2-0.1-0.1-0.3-0.1-0.5c0.2-0.3,0.3-0.6,0.5-1c0.4-0.8,0.3-1.5-0.1-2.2c-0.4-0.7-1-1.3-1.7-1.8c-0.8-0.5-1.6-1-2.6-1.3
		c-0.7-0.2-1.2,0-1.5,0.6c-0.1,0.3-0.2,0.5-0.3,0.8c-0.4,1.5-1.3,2.7-2.3,3.8c-1.9,2-4.1,3.6-6.9,4.3c-2.5,0.6-5,0.8-7.4,0.3
		c-3.1-0.6-5.5-2.3-7-5.1c-0.4-0.7-0.6-1.4-0.6-2.2c0-0.3-0.1-0.6-0.1-0.9c-0.3-0.9-1-1.2-1.8-0.7c-0.4,0.3-0.8,0.6-1.1,0.9
		c-1.1,1-2.2,2-3.3,3c-0.6,0.6-1.2,0.9-2.1,0.9c-1.4,0-2.4-0.9-2.2-2.4c0.1-0.6,0.3-1.1,0.7-1.6c0.9-1.3,2-2.4,3.2-3.3
		c2.9-2.4,6.3-3.9,9.9-4.8c4.7-1.2,9.5-1.5,14.4-0.6c1.8,0.3,3.6,0.9,5.3,1.5c4.5,1.5,8.6,3.7,12.5,6.5c2.1,1.5,4.4,2.9,6.6,4.3
		c0.3,0.2,0.6,0.4,0.8,0.7c0.2,0.1,0,0.5-0.2,0.6C413.2,336.3,412.4,336.1,411.9,336.2z M382.7,337.5c2.9,0.1,4.8-1.4,6.2-3.7
		c0.1-0.2,0.2-0.4,0.3-0.6c0.1-0.4-0.2-0.8-0.6-0.7c-0.3,0.1-0.7,0.2-1,0.4c-1.9,1-3.7,2.1-5.6,3.1c-0.3,0.1-0.5,0.3-0.7,0.5
		c-0.1,0.1-0.2,0.3-0.2,0.5c0,0.1,0.2,0.3,0.3,0.4C381.9,337.4,382.3,337.4,382.7,337.5z"/>
	<path d="M524,128.4c0.1,1.4,0.1,2.4,0.5,3.5c0.4,1.1-0.5,2.3-1.6,2.5c-0.1,0-0.4-0.1-0.4-0.3c-0.1-0.2-0.2-0.5-0.2-0.7
		c0-1.1-0.4-2.1-0.8-3.1c-2-5.2-4-10.3-6-15.5c-0.2-0.6-0.4-1.1-0.7-1.6c-0.3-0.6-0.5-0.6-1.2-0.1c-0.3,0.2-0.6,0.2-0.8-0.1
		c-0.4-0.5-0.7-1.1-1-1.7c-0.8-1.5-1.4-3-2.2-4.5c-2.5-4.7-5.3-9.2-8.9-13.1c-2.8-2.9-5.6-5.8-8.7-8.5c-1.3-1.1-2.7-2.1-4.3-2.9
		c-0.6-0.3-1.3-0.7-1.7-1.3c-0.2-0.2,0-0.7,0.3-0.7c0.1,0,0.2,0,0.4,0c2.4,0.3,4.7,0.7,6.9,1.8c1.9,1,3.8,1.9,5.7,3
		c3.6,2.2,6.8,4.8,9.4,8.1c3.6,4.6,7.1,9.1,9.9,14.2c1.6,2.9,3.1,5.8,4.6,8.7c0.7,1.3,1.4,2.6,2.1,4c0.5,0.9,1,1.9,1,3
		c0,0.6,0.3,1,0.6,1.5c0.4,0.7,0.7,1.5,1,2.3c0.1,0.2,0.1,0.5,0.2,0.7c0.1,0.4-0.4,0.8-0.8,0.7c-0.6-0.1-1.1-0.5-1.5-0.9
		c-0.4-0.4-0.7-1.2-1.4-0.8c-0.6,0.3-0.3,1.1-0.3,1.7C524,128.4,524,128.5,524,128.4z"/>
	<path d="M638.3,422.1c-2.1,0-4.2,0-6.2,0c-1.9,0-2.2-0.4-2.3-2.2c-0.1-2,0-3.9,0-5.9c0-1.1,0.6-1.8,1.5-2.2
		c0.7-0.3,1.5-0.5,2.2-0.5c0.9,0,1.8,0,2.7,0c4,0,8.1,0.1,12.1,0.1c0.5,0,1,0,1.4,0.1c0.6,0.1,0.8,0.5,0.7,1
		c-0.1,0.5-0.3,0.9-0.5,1.3c-0.9,2.2-1.8,4.4-2.7,6.6c-0.1,0.3-0.2,0.5-0.4,0.8c-0.3,0.6-0.8,1-1.6,1c-0.8,0-1.5,0-2.3,0
		C641.4,422.2,639.9,422.2,638.3,422.1C638.3,422.1,638.3,422.1,638.3,422.1z"/>
	<path d="M438.7,441.4c-2,0.1-4.2-0.5-6.4-1.1c-1.5-0.5-3.1-0.9-4.6-1.3c-2.4-0.7-4.4-2.1-6.1-4c-0.6-0.7-1.1-1.5-1.5-2.4
		c-0.6-1.3-0.3-2.5,0.9-3.3c2.2-1.6,4.6-2.2,7.2-1c2.1,0.9,4,2.2,5.5,3.9c2.3,2.7,4.5,5.6,6.9,8.2c0.1,0.1,0.2,0.2,0.2,0.3
		c0.1,0.2,0.2,0.4,0.1,0.7c-0.1,0.3-0.4,0.3-0.6,0.3C439.9,441.5,439.4,441.4,438.7,441.4z"/>
	<path d="M649,368.9c-4.2,0-8.5,0-12.7,0c-0.8,0-1.7,0-2.5-0.1c-0.5,0-1-0.1-1.4-0.2c-2-0.8-2.6-1.2-2.5-3.4c0-0.5,0-1.1,0-1.6
		c0-2.1,0.2-2.2,2.1-1.5c0.8,0.3,1.7,0.6,2.5,0.9c1.3,0.5,2.6,0.7,4,0.7c5.1,0,10.2,0.1,15.4,0.1c1.3,0,2.3,0.3,3.2,1.2
		c1.4,1.3,3.1,2.1,5,2.7c0.7,0.2,1.5,0.4,2.2,0.6c0.2,0,0.3,0.2,0.3,0.4c0,0.3-0.2,0.4-0.4,0.4c-0.7,0-1.3,0.1-2,0.1
		c-4.5,0-8.9,0-13.4,0C649,369,649,369,649,368.9z"/>
	<path d="M400.5,51.2c0.8,0.1,1.6,0.3,2.4,0.4c0.6,0.1,1.3,0.3,1.9,0.4c0.9,0.1,1.7,0.5,2.4,1.1c1.7,1.5,3.4,3,5.1,4.5
		c0.3,0.3,0.6,0.6,0.7,1c0.3,0.8,0.6,1.7,0.8,2.6c0.2,0.5-0.1,1-0.7,1.1c-1,0.2-1.9,0.1-2.6-0.7c-0.5-0.5-1-1-1.6-1.4
		c-0.4-0.3-0.9-0.3-1.1,0.1c-0.9,1.4-2.1,1.3-3.5,1.1c-1.1-0.2-2.2-0.4-3.2-1c-1.9-1.2-4.1-1.5-6.3-1.7c-1.8-0.2-1.9-0.3-1.5-2.1
		c0.4-1.6,1.3-2.9,2.5-4c0.3-0.3,0.7-0.4,1.1-0.6C398,51.4,399.2,51.4,400.5,51.2z"/>
	<path d="M533.4,76.3c1.8-0.1,3.6-0.1,5.3,0.3c4.6,1,8.2,3.6,11.1,7.3c0.4,0.5,0.7,1.1,1,1.7c0.1,0.2,0.1,0.5,0,0.7
		c-0.2,0.2-0.4,0.2-0.7,0.1c-1.4-0.4-2.8-0.8-4.1-1.2c-2.2-0.7-4.5-1.3-6.7-1.8c-0.5-0.1-1-0.2-1.5-0.4c-1.5-0.5-3-0.7-4.5-1
		c-1.9-0.3-3.7-0.9-5.6-0.8c-0.2,0-0.4,0-0.5-0.1c-1.4-0.7-2.9-0.7-4.4-0.5c-0.2,0-0.4,0-0.5,0c-0.4,0-0.7-0.5-0.5-0.9
		c0.2-0.3,0.4-0.6,0.8-0.7c0.8-0.4,1.7-0.6,2.6-0.6c1.2,0,2.4,0,3.6-0.1c0.2,0,0.5-0.1,0.7-0.1c0.3-0.1,0.4-0.3,0.2-0.5
		c-0.1-0.2-0.2-0.3-0.3-0.5c-0.1-0.4,0-0.7,0.5-0.8c0.4-0.1,0.8-0.1,1.2-0.1C531.8,76.3,532.6,76.3,533.4,76.3z"/>
	<path d="M641.8,222.6c0,1,0,2,0,3c0,0.9-0.3,1.2-1.2,1.3c-2.3,0.5-4.7,0.9-7,1.4c-0.5,0.1-1.1,0.1-1.6,0.1c-0.9,0-1.3-0.4-1.5-1.3
		c-0.3-1.8-0.5-3.5-0.5-5.3c0.1-1.4,0.3-2.8,0.4-4.3c0-0.3,0.1-0.6,0.2-0.9c0.2-0.7,0.8-1,1.5-1.1c0.3,0,0.6,0,0.9,0.1
		c2.4,0.6,4.7,1.2,7.1,1.8c1.1,0.3,1.6,0.9,1.6,2C641.8,220.6,641.8,221.6,641.8,222.6C641.8,222.6,641.8,222.6,641.8,222.6z"/>
	<path d="M639.3,185c1.8,0,3.6,0,5.4,0c1.2,0,1.5,0.3,1.8,1.3c0.7,2.2,1.3,4.5,1.9,6.7c0.1,0.3,0.1,0.6,0.1,0.9
		c0,0.3-0.4,0.6-0.6,0.4c-1.1-0.6-2.2-1.4-3.2-2.3c-0.1-0.1-0.2-0.3-0.3-0.5c-0.2-0.3,0.1-1-0.6-0.9c-0.5,0.1-0.4,0.7-0.5,1.1
		c-0.1,0.5-0.2,0.9-0.4,1.4c-0.2,0.5-0.6,0.8-1.1,0.7c-0.6-0.1-1.1-0.3-1.7-0.4c-2-0.4-3.9-1-5.8-1.6c-1-0.3-1.9-0.6-2.7-1.4
		c-1-1-1.2-2.2-0.8-3.4c0.2-0.7,0.7-1.1,1.3-1.4c0.7-0.4,1.5-0.5,2.3-0.5C636,184.9,637.7,184.9,639.3,185
		C639.3,184.9,639.3,184.9,639.3,185z"/>
	<path d="M349.3,333.6c0-0.6,0.2-1.3,0.5-1.8c0.6-0.8,1.1-1.7,1.8-2.5c2.7-3.1,5.9-5.6,9.6-7.3c2-1,4-2,6.2-2.7
		c0.5-0.1,0.9-0.3,1.4-0.2c0.3,0.1,0.6,0.2,0.7,0.5c0.1,0.3,0,0.6-0.3,0.8c0,0-0.1,0.1-0.1,0.1c-4,2.1-7.2,5.3-10.6,8.2
		c-1.9,1.7-3.8,3.5-5.7,5.2c-0.4,0.4-0.8,0.7-1.2,1C350.3,335.7,349.3,335.1,349.3,333.6z"/>
	<path d="M629.9,282c0.1-0.9,0.2-1.9,0.3-2.9c0.2-1.7,1.1-2.7,2.8-3c2.3-0.4,4.5-1,6.8-1.5c2.7-0.6,5.5-1.2,8.2-1.8
		c0.5-0.1,1.1-0.2,1.6-0.2c0.2,0,0.5,0.1,0.7,0.2c0.4,0.2,0.5,0.9,0.1,1.2c-0.4,0.4-1,0.5-1.5,0.6c-3.1,1-6.2,2.2-9.1,3.6
		c-2.9,1.3-5.6,2.9-8.2,4.7c-0.3,0.2-0.6,0.4-0.9,0.6c-0.4,0.2-0.7,0-0.8-0.5c0-0.1,0-0.2,0-0.4C629.9,282.4,629.9,282.3,629.9,282z
		"/>
	<path d="M630.2,449.1c0.1-1.1,0.3-2,0.2-2.9c0-0.4,0.2-0.6,0.6-0.8c0.4-0.2,0.8-0.3,1.2-0.3c1.4,0,1.9,0.3,1.2,1.6
		c-0.6,1.2-1,2.5-1.1,3.9c0,0.2-0.1,0.5-0.4,0.6c-0.3,0.1-0.6-0.1-0.8-0.3C630.5,450.4,630.2,449.7,630.2,449.1z"/>
</g>
</svg>
