<!DOCTYPE svg PUBLIC "-//W3C//DTD SVG 1.1//EN" "http://www.w3.org/Graphics/SVG/1.1/DTD/svg11.dtd">
<!-- Uploaded to: SVG Repo, www.svgrepo.com, Transformed by: SVG Repo Mixer Tools -->
<svg height="83px" width="83px" version="1.1" id="Capa_1" xmlns="http://www.w3.org/2000/svg" xmlns:xlink="http://www.w3.org/1999/xlink" viewBox="-4.92 -4.92 59.01 59.01" xml:space="preserve" fill="#000000" stroke="#000000" stroke-width="0.00049173" transform="rotate(0)">
<g id="SVGRepo_bgCarrier" stroke-width="0"/>
<g id="SVGRepo_tracerCarrier" stroke-linecap="round" stroke-linejoin="round" stroke="#CCCCCC" stroke-width="0.09834600000000002"/>
<g id="SVGRepo_iconCarrier"> <g> <g> <path style="fill:#010002;" d="M10.549,35.036c-3.756,1.404-5.678,5.615-4.282,9.393c1.062,2.837,3.809,4.744,6.837,4.744 c0.872,0,1.726-0.153,2.538-0.455c0.159-0.06,15.985-6.14,20.331-24.34l5.276-0.009c0.801-0.001,1.495-0.377,1.857-1.006 c0.361-0.629,0.339-1.419-0.063-2.113L31.371,1.107C30.97,0.414,30.298,0,29.572,0s-1.399,0.416-1.8,1.111L16.163,21.296 c-0.399,0.694-0.422,1.483-0.059,2.111c0.362,0.628,1.058,1.003,1.862,1.003l2.654-0.005 C17.351,32.196,10.801,34.934,10.549,35.036z M23.859,24.356c0.254-0.709,0.165-1.449-0.244-2.031 c-0.412-0.586-1.086-0.923-1.852-0.923l-2.202,0.004L29.576,3.993l10.07,17.379l-3.881,0.007c-1.24,0.002-2.39,0.922-2.672,2.138 c-3.892,16.661-18.358,22.336-18.498,22.39c-0.477,0.177-0.979,0.267-1.492,0.267c-1.783,0-3.401-1.123-4.024-2.79 c-0.823-2.226,0.308-4.71,2.559-5.552C11.991,37.688,20.318,34.209,23.859,24.356z"/> </g> </g> </g>
</svg>